<?xml version="1.0" encoding="UTF-8"?>
<svg version="1.1" viewBox="0 0 2048 2048" width="1280" height="1280" xmlns="http://www.w3.org/2000/svg">
<path transform="translate(738,89)" d="m0 0h533l131 1 6 2v29l-1 96h135l120 1 2 2v29l-1 96h47l80 1 2 2v663l-1 355-1 1-27 1-99 1v40l-1 213-1 1-24 1-101 1-1 29-1 96-1 1-17 1-53 1h-55l-1 31v93l-1 2-4 1-301 1h-460l-2-2-1-4-1-28v-31l1-63h-126l-2-4-1-32v-21l1-71h-124l-3-2-1-6-1-127v-69l1-52h-124l-3-2-1-10-1-99v-855l1-48 1-8 2-2h124l1-98 1-28 2-2h252l1-110 1-15 2-2z" fill="#353435"/>
<path transform="translate(385,729)" d="m0 0h66l67 1 53-1h67l2 5v122l238 1 21 1v2l3-2 6-1 248 2-1 26-1 33-1 364-1 96-1 119-1 1-18 1-87 3h-19v240l1 6 3-2 16-1 40 1 31 2v2l9-2 3 4-32 1-51 1-339 1h-49l-13-1-3-4-1-15-2-77v-31h-101l-3 2h-10l-7 5h-1l-2 9-1 109h30v1h-31l-2-4-1-32v-21l1-71h-124v-1l123-1v-2h2v-29l-2-141-1-79-27-1-63-1-29-1-4-3-1-31-2-177-1-404 1-21z" fill="#DADADA"/>
<path transform="translate(1409,727)" d="m0 0 12 1 115 1h127l1 25 1 181v418l1 16h-2v40l-1 213-1 1-24 1-101 1-1 29-1 96-1 1-17 1-53 1h-55l-1 31v93l-1 2-4 1-301 1h-460l-2-2-1-4-1-28v-31l1-63h-95l-30-1v-109l2-10 5-2 5-3h9l-14-1v-1h44l74 1 3 108 1 15 2 3 13 1h49l339-1 51-1 31-1-2-2-9 1v-2l-3 1-28-2-42-1-14 1-3 2-2-7v-68l1-172 71-3 35-1 18-1 1-123 1-99 1-357 1-33 2-26h-148l-99-1v-1h187l62 1 29-1h94l2 4h2l1-4 7-1 112-1 2-62z" fill="#939695"/>
<path transform="translate(889,343)" d="m0 0 43 1 10 2h3l7-1 23-1h16l8 1h36l71-1 50 1 20-1h18l13 1 33 1h42l-1 5 2 2 3 7 3 2-2-9v-6l1-1h61v2h7l2 3h4l1-4 21-2h23l3-1h54l18 1v2l-5 2v2l8-2-1-3 1-1h50l3 7v24l-1 92-1 5h127l1 6v100l-1 14-1 1-22 2h-12l-12-3-6-4-6-2-9 1-8 5-13 4-15 2-48 1-24 1h-24l-8-2-3-2v-2h-15l-9 5-2 3h-2l-1 3-10 3-2 4-1 4-1 33v59l1 12 1 5-4 3h-79l-38 1h-353l-111-1-5 1h-50l-69-1-4-2-1 1-16 1-17-1-10-4-8-2-2-2 1-5-2-1-1-9-2-7-1-20 1-63 5-5 6-2h6l3-2v-2l-3-1-5 2-5-2-10-2h-237l-9-2-5-5-1-33-1-25v-61l1-1 19-2 95-2h14l-3-24v-43h2v-13l1-16v-11l2-1 1-6-4-1 1-9h7l4 4 3 7-1 4-2 4 5 2 16-8 10-6v-4h2v-2l10-2h44l25-1h252z" fill="#020003"/>
<path transform="translate(386,217)" d="m0 0h254v50l-1 77-3 1-28 1h-41l-10 1-2 7-14 8-12 6-5-2v-4l2-2-1-6-3-6-9-2v9l3 1v6l-3 1 1 6v13l-2 21h-2l1 43 2 17v7l-14 1-95 2-19 2v69l1 17 1 33 4 4 9 2h237l13 3 3 1 5-2 3 2-1 3-3 2h-8l-7 4-1 2-1 63 1 20 3 10v6l1 3 1 4 16 5 2 1 22 1h11v-2l5 2 69 1h50l10-1 106 1h353l40-1h77l2-1v26l-2 76-1 26-1 1-112 1-7 1-1 3-3 1-1-4h-94l-30 1-61-1h-189l-8 2v-2l-253-1-6-1-1-122-1-4h-67l-57 1-63-1h-66l-1 3-1 21 1 404 2 177v31l4 2 29 1 63 1 27 1 1 1 2 157 1 63v30l-3-1v2l-2 1h-123l-2-7-1-127v-69l1-52h-124l-3-2-1-10-1-99v-855l1-48 1-8 2-2h124l1-98 1-28z" fill="#353435"/>
<path transform="translate(1409,727)" d="m0 0 12 1 115 1h127l1 25 1 181v418l1 16h-2v40l-1 213-1 1-24 1-103 1v-253l-1-1-33-1-93-1v206l-1 49-3 1-121-2-3-3v-750l1-12 2 3h2l1-4 7-1 112-1 2-62z" fill="#737475"/>
<path transform="translate(907,857)" d="m0 0 249 2-1 26-1 33-1 364-1 96-1 119-1 1-18 1-87 3h-19v240l1 6 3-2 16-1 40 1 31 2v2l9-2 3 4-32 1-51 1-339 1h-49l-13-1-3-4-1-15-2-77v-30h1l2 67 1 37v17h2l-1-2-1-20v-49l-2-26v-24l7-1h53l60 1 4 1v124l173-1-41-1-1-1v-816l1-62 1-14 1 2 3-2z" fill="#A7A9A8"/>
<path transform="translate(738,89)" d="m0 0h533l131 1 6 2v29l-1 96h135l120 1v1h-250l-4-1v105l-1 21-28 1h-87l-85 1-13-1h-18l-28 1-47-1-78 1h-24l-8-1h-16l-23 1-11 2-1-2-8-1-43-1-1 1h-158l-91-1v-77l1-50h-2l1-110 1-15 2-2z" fill="#939695"/>
<path transform="translate(521,1626)" d="m0 0h44l74 1 3 108 1 15 2 3 13 1h49l532-2h39l103 3h26l-1 13-1 111-2 1-301 1h-460l-2-2-1-4-1-28v-31l1-63h-95l-30-1v-109l2-10 5-2 5-3h9l-14-1z" fill="#353435"/>
<path transform="translate(738,89)" d="m0 0h533l131 1 4 1v124l-44 1-109 1h-316l-46 1-30-1-213-1-7-1-1-2v-69l1-53 1-1z" fill="#363536"/>
<path transform="translate(1536,729)" d="m0 0h127l1 25 1 181v418l1 16h-2v40l-1 213-2 1v-251h-57l-46-1-23-1-1-218v-333l1-76z" fill="#A7A9A8"/>
<path transform="translate(670,985)" d="m0 0h94l4 2v384l-34 1h-95l-1-1-1-7-1-54v-285l1-38 1-1z" fill="#FDFDFD"/>
<path transform="translate(386,217)" d="m0 0h254v50l-1 77-3 1-28 1h-41l-10 1-2 7-14 8-12 6-5-2v-4l2-2-1-6-3-6-9-2v9l3 1v6l-3 1 1 6v13l-2 21h-1l-1-49 1-8h-92l-30-1-4-1v-126z" fill="#363536"/>
<path transform="translate(1408,1369)" d="m0 0h93l33 1 2 2v282l-1 96-2 1v-120l1-3h-30l-53-1-28-1v-1l-16-1v-251z" fill="#939695"/>
<path transform="translate(1536,729)" d="m0 0h127l1 25 1 181v229h-1l-1-194-2 5-1 9-1 2h-13l-39-2-47-3-24-2-2 3v-163l1-76z" fill="#939695"/>
<path transform="translate(640,92)" d="m0 0h1v123l220 1 32 1v75l-1 51-4 2h-158l-91-1v-77l1-50h-2l1-110z" fill="#737475"/>
<path transform="translate(1408,218)" d="m0 0 254 1v124l-21 1-64 1-47 1h-45l1 3-7 2h-2l-1-3 6-1v-2h-72l-9 1h-17l-21 1-1 5-5-1-1-2h-8l1-3-61 1 1 15-4-2-4-8-1-4 1-1h-44l-12-1v-1l67-1h115z" fill="#343335"/>
<path transform="translate(383,733)" d="m0 0h1l1 381 1 82 1 38v-109l-1-7 1-2 6-1h91l25 1 1 38v218l-28-1-63-1-29-1-4-3-1-31-2-177-1-404z" fill="#A6A8A7"/>
<path transform="translate(1536,1370)" d="m0 0h22l103 2v251l-23 1-103 1v-59z" fill="#353335"/>
<path transform="translate(1535,1189)" d="m0 0h1v55h120l2 2 1 20 2 18 1 1 1-8h1l1 76 1 16h-2v40l-1 213-2 1v-251h-57l-46-1-23-1z" fill="#939695"/>
<path transform="translate(571,729)" d="m0 0h67l2 5v122l238 1v1h-281l-72-1-12-1v-101l1-24 4-1z" fill="#A6A8A7"/>
<path transform="translate(1662,219)" d="m0 0 2 1v29l-1 96h47l36 1v1h-83l-1 125-13 1-54 1h-50l-9-1 1-97v-24l-1-6 5-1 36-1 64-1h21z" fill="#747576"/>
<path transform="translate(511,1463)" d="m0 0h1l2 119v40l7 2-2-5-4-2v-88l-1-11v-18l21-1h48l53 1 1 1 1 64v56l-3 4 3 2h-100l-3 2h-10l-7 5h-1l-2 9-1 109h30v1h-31l-2-4-1-32v-21l1-71h-124v-1l123-1v-2h2v-29l-1-63z" fill="#A7A9A8"/>
<path transform="translate(521,1626)" d="m0 0h44l74 1 3 108 1 15 3 4 15 2v1h-10l-4 4-4-1-1 22-1 97-2-4-1-28v-31l1-63h-95l-30-1v-109l2-10 5-2 5-3h9l-14-1z" fill="#353435"/>
<path transform="translate(384,219)" d="m0 0h1v125l34 1 92 1v100l2 17v7l-14 1-95 2h-19l-1-1v-127h-2l1-98z" fill="#747576"/>
<path transform="translate(385,1242)" d="m0 0h124l1 31v99l-28-1-63-1-29-1-4-3-1-31z" fill="#727374"/>
<path transform="translate(1154,1627)" d="m0 0h125v60l-1 43v22l-9 1h-172v-1h56l-1-7z" fill="#737475"/>
<path transform="translate(1408,1626)" d="m0 0h43l53 1 30 1-1 123-16 1-53 1h-44l-11-1-1-20z" fill="#353435"/>
<path transform="translate(1537,352)" d="m0 0h1v24l-1 92-1 5h127l1 6v28l-2-4-3 4-1 7v7l-6 9-15 1-12-3-1-5-5-2 1-3-2 1-2 4-4 2-1 2h-6l-1-1v-6l2-2 11-2-1-4-3-4-9-2-7 6-6 2h-7l-5-6h-6v2l-5 1-1-4 1-2-12 2-2-3 1-1h5v-7h-15l-11 4h-6l-6-8-7 2-6 5 2 5-1 6-7 8v10l-2 3-3 1-14 1h-14l-2-5 4-8 3-3 4-7 4-3 4-11 2-4h2v-3h2v-3l2-1 1-3 2-1 2-5 3-3 3-1h12l1 1h15v-12l-2-9-3-2-8-2-3-5v-2l-5-2-6-4-10-1-4-4-7 1-1 1h-8l-2-4 3-6 1-5 9-7 14-7 8-2 7-3 11-3h7z" fill="#07000C"/>
<path transform="translate(384,475)" d="m0 0h1l1 7 1 18 3 5-1 4-1 2v6l6 3h13l-2-8-1-5 1-1 15-2 13-2h19l4 2 3 16 2 6 6 2 1 2v7h-2v7l-2 3 1 5 5 5-2 16 1 2h3l1-2h2l1-3h2v-2l5-1h7l2 2v5l-4 5-8 5-2 5 3 3 4 2-1 4 3 1h34l12-1 4-1h2l-2-5-6-3-5-5-3-8v-7l5 2v2h3l1 2 3 1 1 2h8l5-9 2-3 1-8h4v11l-6 10h-2l1 10-2 7v2l9-1 1 1 14 1v1l-37 1h-134l-9-2-5-5-1-33-1-25z" fill="#07000C"/>
<path transform="translate(386,731)" d="m0 0h127l-1 15-1 1-7-1-17-1-28 1-9 1-12 2-8 2-18 8-6 4-6 11-3 12v33l-1 27v253l-1 15-9 1-1-1v-382z" fill="#E7E8E7"/>
<path transform="translate(1539,525)" d="m0 0h26l5 4 2 10h2l4 10 5 7v8l-5 9-2 6v6l-7 8v2l5 1v1l-15 2-48 1h-20l2-2 10-1-7-3-7 1-2 2-5-1-5-3-2-2v-5l1-5-1-5v-7l6-1v-2h5l1 3-1 5h4l6-4h11l10-6 2-2v-3h-17v-8l1-2h2l2-7 6-7 10-6 5-2z" fill="#07000C"/>
<path transform="translate(640,615)" d="m0 0h1l1 8 7 2 5 5 5-3 4 1 2 10-1 1-1 7h-2l-1 4-5 3-9 2-1 7-2 7-1 3v18l4-4 2-4 3 1 3 8h4l-1-8-1-11 1-2h2l2 17 3 4v3h2l1 4-5 2v8l3 6 5-1v-11l10-6 1-1v-7l-1-10 8-15 3-1 3-7 5-5 5-3h7v2h6l1 5 9 1v3l4 2 8 6-1 7-3 5-6 2h-7l-2-2v-8l-4-4-8-1-1 3h-2l-2 4v5l5 2 1 3-3 6h-2l-1 5-3 3h-2l-1 9 3 1-1 7-2 7 6-1 6-6 7-1 4-3 8-2v-2l3-1 1-2h3l1-3 16 1 11 1 4 6 1 8-3 9-3 2h-4l-3-3-5-1h-12l-10 4-1 1 94 2v1h-50l-69-1-4-2-1 1-16 1-17-1-10-4-8-2-2-2 1-5-2-1-1-9-2-7-1-20z" fill="#0A0116"/>
<path transform="translate(1409,560)" d="m0 0h7l9 3 5 1 3-2h6l5 3 1 6-2 7 1 4 9 6 2 7 2 4-5-2v-2h-15l-9 5-2 3h-2l-1 3-10 3-2 4-1 4-1 33v59l1 12 1 5-4 3-64-1v-1l63-1-3-2 2-7v-2l-3-1-6 6h-10l-1-5 1-10-6 1-4 5-4-1-1-10 3-3 11-9 2-4 3-12 2-11 3-24v-8l6-5 1-3v-10l-3-3-8-4-2-2-14-1-3-3 2-14 4-4h4l3-6 7-2 1-5 13-2z" fill="#07000C"/>
<path transform="translate(1410,344)" d="m0 0h54l18 1v2l-5 2v2l8-2-1-3 1-1h50l-6 4-12 2h-10l-1 6 9-1 2 2v4l-2 1-2 10-9 2-3-3v-6l2-3v-4l-13 1-5 4-5 7h-11v3l3 1 4 8-1 4-12-1-4-2 1-16 6-9 3-1 1-7 2-5h-16l-15 2-5 3v8h-4v-3l-11 2v3l-6 2-2-4 1-3 3-3h-7l1 4h-4v-2l-6-1-5 5-4-1-1 6-5 3-13 5h-5l-3-6-1-5h-2l-1 9-4 6h-4-6l-2 3v3l4 2v3l-5 4v6l-5 5-6 3-9-1-2-1 1-6 4-8 3-3 3-8v-7h2l2-9 2-2 4-1v-5l3-5 1-3h2v2h7l2 3h4l1-4 21-2h23z" fill="#080010"/>
<path transform="translate(552,558)" d="m0 0h4v11l-6 10h-2l1 10-2 7v2l9-1 1 1 14 1v1l-37 1h-134l-9-2-5-5v-31h1l1 13 6 1 11-3 3-5 5-3 7 1 1 1h16l7 4 17 1 5 5h6l1-5h2l1-3h2v-2l5-1h7l2 2v5l-4 5-8 5-2 5 3 3 4 2-1 4 3 1h34l12-1 4-1h2l-2-5-6-3-5-5-3-8v-7l5 2v2h3l1 2 3 1 1 2h8l5-9 2-3z" fill="#0A0116"/>
<path transform="translate(1537,352)" d="m0 0h1v24l-1 92-1 5h9v1l-9 1-2 5-9 9-9 3-11 7-5 3v7l-7 3h-11l3-12 4-8h2v-3h2v-3l2-1 1-3 2-1 2-5 3-3 3-1h12l1 1h15v-12l-2-9-3-2-8-2-3-5v-2l-5-2-6-4-10-1-4-4-7 1-1 1h-8l-2-4 3-6 1-5 9-7 14-7 8-2 7-3 11-3h7z" fill="#0A0116"/>
<path transform="translate(706,859)" d="m0 0h192v13l-1 1-1 17-2-3-4-10-3-4-18-1-37-1-31 1h-66l-39-2-18-1-18-2-16-3v-2l-2-1 1-1h18z" fill="#E6E7E6"/>
<path transform="translate(256,347)" d="m0 0h1v1020h-1l-1-10-1-99v-855l1-48z" fill="#F0F0F0"/>
<path transform="translate(1790,347)" d="m0 0 2 1v663l-1 355-2 1v-976z" fill="#F1F1F1"/>
<path transform="translate(1381,507)" d="m0 0 14 1 4 3 8 3 3 7 5 3 2 4v5l-3 4h-2v2l-9 4h-7l-6-1-5 5-4 6-5 5-2 1-2 9-3 2-16 3-7-1-4-8 1-5 3-3 10-4-1-8 5-14 4-7 5-5 2-4h2v-2h2v-2h3v-2z" fill="#07000C"/>
<path transform="translate(384,475)" d="m0 0h1l1 7 1 18 3 5-1 4-1 2v6l6 3h13l-2-8-1-5 1-1 15-2 13-2h19l4 2 3 16 2 6 6 2 1 2v7h-2v3l-3 3-16 3h-4l-2-7-8-1-8 4-12 1-5-3 1-5 3-1 3 1 5-1v-4l-4-2-3-2-3 3-16 2h-5l-1 5-2 3-1 5h-1z" fill="#0A0116"/>
<path transform="translate(1010,545)" d="m0 0h9l7 3 5 3 5 2 9 9 2 4v7l-4 2v2l-8 3h-13l-8 3-3 5-6 6-5 2v8l-2 3-9 4h-8l-1-4-3-1-1-5 1-4 6-5 6 2-2-1-3-1-1-2v-11l4-9h2l1-4h2l1-4 5-4 3-7 5-4z" fill="#080010"/>
<path transform="translate(513,346)" d="m0 0h7l4 4 3 7-1 4-2 4 5 2 16-8 10-6v-4h2v-2l2-1h7v1l-6 2-1 1-1 9 9 3 1 6-5 6-17 8-10 1-1 3v7l1 1v10l-3 3h-2l-2 4-4 6-2 9-2 3-3 16-4 5-1 13h-1l-2-17v-43h2v-13l1-16v-11l2-1 1-6-4-1z" fill="#09020E"/>
<path transform="translate(587,396)" d="m0 0 7 1 2 2v5l-4 4h-6l-7-1-3 1-2 6 8 4 7 2h7l9 2v2h4v2h3l1 5-5 8-4 5-15 2-1 1h-6l-5-4 1-4v-9l-2-3h-6l-4 5-6 3-11 3-5-5-12-1-1-1v-8l3-7 3-3 3-6 4-4h4v-2l15-1v-2l3-1z" fill="#07000D"/>
<path transform="translate(1649,540)" d="m0 0h15v39l-1 14-1 1-22 2h-12l-12-3-6-4-6-2h-8l4-4h11l7-9 3-6 5-6h2l2-4 3-1 1-6 10-9z" fill="#07000C"/>
<path transform="translate(806,545)" d="m0 0h7l6 3 5 2 8 4 9 11 1 5-3 5-8 2-11 2-11 6-7 11-3 3-2 4-5 2h-7v-5l-5 2-3 3-4-1-2-3 1-4 6-7 2-4 1-14 3-4h2l1-4 3-3 2-3h2v-5l6-5 6-1z" fill="#0A0116"/>
<path transform="translate(696,697)" d="m0 0 2 1-1 7 3 1-1 7-2 7 6-1 6-6 7-1 4-3 8-2v-2l3-1 1-2h3l1-3 16 1 11 1 4 6 1 8-3 9-3 2h-4l-3-3-5-1h-12l-10 4-1 1 94 2v1h-50l-69-1-4-2-1 1-16 1-11-1-2-3h2v-2h2v-10l5-4 9-2 5-4z" fill="#07000C"/>
<path transform="translate(383,1367)" d="m0 0 5 2v113l1 8-1 5h2l1 29 1 85 1 9 11 1 29 1 18 2h27l30 1v1h-123l-2-7-1-127v-69z" fill="#1E1828"/>
<path transform="translate(1410,344)" d="m0 0h54l18 1v2l-5 2v2l8-2-1-3 1-1h50l-6 4-12 2h-10l-1 6 9-1 2 2v4l-2 1-2 10-9 2-3-3v-6l2-3v-4l-13 1-5 4-5 7h-11v3l3 1 4 8-1 4-12-1-4-2 1-16 6-9 3-1 1-7 2-5h-16l-15 2-5 3v8h-4v-3l-11 2v3l-6 2-2-4 1-3 3-3h-7l1 4h-3v-3l-6-2-3-2v-2h-2v-2z" fill="#0A0116"/>
<path transform="translate(1135,345)" d="m0 0h40l-1 5v7h6l3 5-1 7-7 3h-15l-7 2-1 3-4 1-6 1-2 3 5 2-1 4-5 3-1 8-7 3-3 3h-7l-2-1 1-10 4-8 3-7 1-1 1-8h2l1-7h2l1-4 4-7 4-1 4 1 4-1 1-2-5 1-5-2v-2h-7z" fill="#07000D"/>
<path transform="translate(1409,560)" d="m0 0h7l9 3 5 1 3-2h6l5 3 1 6-2 7 1 4 9 6 2 7 2 4-5-2v-2h-15l-9 5-2 1 1-5-2-3-1-10 2-5-3-2-8 1h-4-6l-2-1v-2l-4-1-3 5-3 3 2 4h6l1 1-1 7-8 5-9 2-2 1h-7l-3-3 2-14 4-4h4l3-6 7-2 1-5 13-2z" fill="#0A0116"/>
<path transform="translate(1035,460)" d="m0 0h12l22 2 7 5 13 2 8 10 1 11-2 3-9-1-2-1 1-5h2l-1-4-5 3-6-1-5-3-1-2v-7h-10l-15 6-7 1-2 5-14 4-3 2-5 1h-8l-4-7 1-4 6-2 5-5 13-12z" fill="#0D0226"/>
<path transform="translate(762,344)" d="m0 0h13v1l-8 1-5 7 1 8 5 1v-2h3l2 3v7l-15 2h-8l-6 2-2 7-4-1-2-5-4 1-1 5v5l-6 4 1 5 1 4-12 6-7-2 3-10 2-3h2l2-4 1-1 3-21h2l2-5 7-8 1-4-3-2z" fill="#07000D"/>
<path transform="translate(1282,647)" d="m0 0h6l8 3 6 2 3 3 2 9h2v2l3 1-1 7-5 4-15 3 1-11-3-5h-2l-8 7-5 3-5 7 2 5 5 3-1 5-4 4-8 10-6 2-7-2-2-2 1-4 8-5 3-1-1-6-3-3v-11l5-2 1-9 1-2 5-3 3-4-1-3h2l1-3 6-1v-2z" fill="#090015"/>
<path transform="translate(889,343)" d="m0 0 43 1 10 2h3l7-1h20l-4 4v5l1 2v6l5-3 5 2v8l-12 4-6-1-5-2h-5l-1 7h-2v2l-4-1-1-4-7-1-2 2-1 8-1 1h-6l-1-6v-8l4-9 3-3 1-4 2-1 2-7-38 1-21-1v2l-7 1v-2h-55l-12 2-3 3-5-2-2-4-2-1 61-1h35z" fill="#06000C"/>
<path transform="translate(766,1725)" d="m0 0 1 2 4 2 4 6v3l12 3h81l14 1 12-4 1 14h-130l-1-4 1-3z" fill="#E8E9E8"/>
<path transform="translate(1532,346)" d="m0 0h4l1 2v24l-1 24-7-1-1-4-10-3-3-3 1-7-3-3-9 2-6-1v7l-3 2-6-1-2-5-7-1v-2h-2l-2-3h-3v5l-1-3-4-1 1-4h11l6-8 4-3 14-1-1 7-1 1v6l3 2 8-1 1-10 3-1-2-5h-9l1-6 22-3z" fill="#07000C"/>
<path transform="translate(604,546)" d="m0 0h8l7 5v2l5 1 3 5v2h3l3 4v2l3 1-1 5-3 1v2l-10 4-5-1 3-10-6 1-8 5-2 4-5 4-3 4-10 4-4 2-5-6v-14l5-6 2-1h7l-2-3 1-4 3-1 2-7 8-3z" fill="#0A0116"/>
<path transform="translate(616,568)" d="m0 0 4 1-1 7-1 3 7-1 6-2 1 5 5 2 2 3v9l6 4 13 1 5 3v5l-4 2h-11l1-2h8l3-2v-2l-3-1-5 2-5-2-10-2-66-1-7-1v-1h8l1-7 2-3 1-12h1l1 11 4 5 4-2 11-5 5-6 2-1 2-4z" fill="#07000C"/>
<path transform="translate(1323,703)" d="m0 0h5l5 2 4 1 5 4 1 6-4 3-16 4-6 1h-10l-5 1-2-1-1 4h29v1l-38 1h-146v-1l122-1 7-3 3-3 3-6 11-4h3v-2l5-2h4v-2l5-2h15z" fill="#0A0116"/>
<path transform="translate(1244,599)" d="m0 0 32 1 5 5-1 5-5 1v3l-7 1h-16l-2 2-19 1 2 6 4 4 2 5-1 5h-4l-4-10h-3l-4 5h-4l-1 3-9 1-3-1v-11l3-3 6-2 2-7 7-6z" fill="#0D0225"/>
<path transform="translate(1214,545)" d="m0 0h9l10 4 6 2 5 5 5 6 2 1 1 8-1 2-6 2-3-2v-10l-9 1-4-1-11 7-3 12-4 1-6-2-11 5-5-1v-8l2-6h2v-3l3-2 2-4 5-4 3-8 5-4z" fill="#0D0226"/>
<path transform="translate(977,393)" d="m0 0 22 2 10 5-1 4-3 3-7 1h-7l-6 2-13 2-4 1-4 6-3 6-5 5-6 2h-11l-3-4 1-7 5-5 6-4 3-5 5-5 7-3 7-2 4-3z" fill="#0D0225"/>
<path transform="translate(771,394)" d="m0 0 23 1 9 4 2 1v3h-2l-1 4-2 1h-6l-4-1-10 4-3 3-12 1-4-2v-2h-3v7l-3 8-6 4-11 3-5-1-1-1v-11l5-5 5-3 1-2h3l1-3 4-3 7-3 6-3z" fill="#19063F"/>
<path transform="translate(858,624)" d="m0 0h9l9 1 4 2 1 3 3 3-1 5-1 3-7 4-7-1-8-5-8 2v2l-4 2h-3l-1 13-4 4h-10l-3-3-6-2v-7l1-2h2l1-5 5-3 2-3h3l2-7 8-1 1-1h9v-2z" fill="#190640"/>
<path transform="translate(1182,393)" d="m0 0 13 1 11 1 4 2 3 3v6l-3 2h-6l-5-1-9 3-9 2h-8l-5-2-1 8-3 9-8 4-8 2-5-1-1-1v-9l14-16 2-3 9-4 7-2z" fill="#0D0226"/>
<path transform="translate(1385,394)" d="m0 0 14 1 6 1 11 2 2 1v5l-5 5-5-2-10 1-6 4-4 1-6-1-5-1-3 1-5 9-2 5-4 4-5 2-12 1v-10l5-5 3-1 2-4 3-7 5-4 8-4 7-1z" fill="#0D0226"/>
<path transform="translate(511,1354)" d="m0 0h1l2 13 3 16 1 23 2 23 1 17 2 32 1 11 3 6-1 3-3 1h-9l-1-2-1-25-1-9z" fill="#E6E7E6"/>
<path transform="translate(1381,507)" d="m0 0 14 1 4 3 8 3 1 5-2 4-7 3h-8l-7 1 1 5 1 1v5l-5 7-5-1-3-3-4 2-7 5h-5l-1-7 5-13 3-5 5-5 2-4h2v-2h2v-2h3v-2z" fill="#0D0226"/>
<path transform="translate(1787,594)" d="m0 0h1l1 772h-9v-2l3-1v-26l1-7 1-26 1-88z" fill="#0A0116"/>
<path transform="translate(1229,562)" d="m0 0 6 1 7-1 1 1v10l3 1 4-1-2 3h-2v2l-9 3-5-1h-8l-5 2-2 5-4 1-2 6-4 2-2 9-4 3-6 2h-9l-2-1v-2l-5-2v-5l5-4h3v-2h7l-2-4-4-4v-7h1l1 6 7-1 8-4 7 2h3l1-10 5-5z" fill="#07000C"/>
<path transform="translate(835,600)" d="m0 0h7l9 2 7-2 8 1 3 3-2 5-3 2h-6v-2l-13 1-24 5-5 3-6 3-5 1-4 9-5 6-8 6-9 4h-3v5l-3 4-1 5-6 4-3 3-4-1-3-4 1-4 6-5 3-1 3-5 3-2 3-5 2-1h6l1-8 3-1v-2l7-3 5-4 5-5 3-1v-2l6-4 7-2 8-5z" fill="#1A0742"/>
<path transform="translate(630,461)" d="m0 0h9l15 3 6 3 5 2v2l11 1 8 3 3 9 1 8-8 1-4-3 1-4 1-3-2 1h-6l-2-1v-2l-4-1-3-3-2-6-9-1-12 5-7 3-5 2-15 7-9 4h-3l1-4 3-3 4-7 7-9 4-4z" fill="#190641"/>
<path transform="translate(687,525)" d="m0 0h9l5 2-1 7-3 5h-2v10l-4 10-5 4-1 3-6 1-5-4-3-3-5 1-3 5-4 1-3-4v-5l4-2 3-7 3-3h2l2-7 4-2v-2l4-2 2-6z" fill="#090015"/>
<path transform="translate(748,522)" d="m0 0h7l5 3 6 3 1 4-2 4-9 6-11 1-1 5-2 3v11l-3 3-8 2-4-3 1-5 2-3-8-1-2-6v-9l2-2h5l2-4 6-7 9-2v-2z" fill="#190641"/>
<path transform="translate(1301,523)" d="m0 0h7l8 4 1 5-8 8-8 1-1 1v7l4 6-1 6-2 4-5 1-7-4-9 2-3 1h-7l-1-3h-2l2-6 5-5 5-3 3-3 1-7 7-6 3-6z" fill="#0D0226"/>
<path transform="translate(513,464)" d="m0 0h1v8l7-3 5 3 6 1v2l5 2-1 5-4 5-4 3-2 7-3 6-4 4h-4l-1-10-10-2-5 1-4 8h-3v-2h-2l-1-5 4-3 5-10 8-5-2-6-8 1-7-1-43-1v-1l67-1z" fill="#0D0225"/>
<path transform="translate(1534,470)" d="m0 0 1 3h10v1l-9 1-2 5-9 9-9 3-11 7-5 3v7l-7 3h-11l3-12 4-8h2v-3h2v-3l2-1 1-3 2-1 2-5 3-3 3-1h12l1 1h15z" fill="#0E0327"/>
<path transform="translate(1093,664)" d="m0 0h7l16 5 4-1 1-1h6v5l-6 5-3-1v-2l-4 1-6 3-2 3h-2v2h-2l-2 6-5 8-7 3-5-2-6-5-5-3-6-1-6-7v-1l14-1 12-4 2-7z" fill="#190640"/>
<path transform="translate(736,699)" d="m0 0 16 1 11 1 4 6 1 8-3 9-1 1h-5l1-6h-16l-15 1h-7l-4-1 1 5 2 1v2l-3 1-1-3h-2v-8h-7v5h2v3l-7 1 1-5 2-5 3-3 7-1 4-3 8-2v-2l3-1 1-2h3z" fill="#0D0225"/>
<path transform="translate(891,524)" d="m0 0h11l5 3-1 7-5 5-9 4-7 1-2 2 1 7 5 1h5l2 4-2 4-9 2-2-1h-8l-5 3h-9l-3-5 1-4 5-5 5-3 2-3 2-7 7-6 2-1 2-5z" fill="#19063F"/>
<path transform="translate(953,524)" d="m0 0h8l10 4 1 4-5 6-7 3h-6l-4-2-3 3-3 5 1 6 3 4-1 5-10 5h-5l1-7 2-3-9-3-2-1v-11h2l1-4h4l2-4 7-7 4-2z" fill="#190640"/>
<path transform="translate(1649,540)" d="m0 0h15v39h-1v-8h-10l-11 3h-5l-3-5-1-2-5-2-1-3 4-5h2l1-6 10-9z" fill="#0A0116"/>
<path transform="translate(1255,677)" d="m0 0h1l1 11 4 5-1 5-6 3-5 3 1 4 7 2 6-2 3-2-2 16-4 2-10 1-17-2-2 2 4 4h-30v-1l8-1 8 1-2-9 7-8 6-4 5-4 4-4 9-3 4-8z" fill="#07000C"/>
<path transform="translate(1053,704)" d="m0 0 5 1 8 8 5 2v3l3 1 3 6 4 2 43 1v1l-81 1h-106l-101-1v-2h-6l2-5 5-6 2-1h7l10 9v4h184l13-1 2-5-2-9-1-1v-7z" fill="#0A0116"/>
<path transform="translate(845,609)" d="m0 0h13v2l9-2-5 5-21 3-7 3-12-1-10 4-3 5-10 10-2 7-1 12-3 6-7 5-6-1v-4l-11 2-5 4h-5v-3l4 1 5-5 4-2 1-5 2-3 1-5 12-5 8-6 6-8 3-7 7-2 8-4 7-2z" fill="#090015"/>
<path transform="translate(511,1463)" d="m0 0h1l2 119 1 41 6 3 17 1-3 2h-10l-7 5h-1l-2 9-1 109h30v1h-31l-2-4-1-32v-21l1-71h-124v-1l123-1v-2h2v-29l-1-63z" fill="#767679"/>
<path transform="translate(704,647)" d="m0 0h7v2h6l1 5 9 1v3l4 2 8 6-1 7-3 5-2 1h-7l-2-1v-4h2v-6l-3-3-3-5-10 2-4 5-5 3-7 3-3 3-3 9-3 3h-2l2-5 1-2-5 1-1-4 8-15 3-1 3-7 5-5z" fill="#190640"/>
<path transform="translate(1134,472)" d="m0 0h13l7 3 1 5-3 7h-3v2l-6 4-3 7-8 7-7-1-4-4-3-5v-8l5-10 5-5z" fill="#190640"/>
<path transform="translate(719,472)" d="m0 0h14l8 1v2l4 2 1 4-3 5-6 2v2l-4 2-2 7-5 5-3 2h-6l-4-3-3-5v-2h-2v-8l3-6h2l1-5z" fill="#0D0225"/>
<path transform="translate(563,398)" d="m0 0 9 1v4l-5 5-4 1v2l-5 2 1 7 7 5-1 4-2 2-5 1-10-3-5 3h-11l-1-1v-8l3-7 3-3 3-6 4-4h4v-2l15-1z" fill="#0A0118"/>
<path transform="translate(929,472)" d="m0 0h9l9 3 3 2-1 9-8 4-4 6-3 5h-2l-1 3h-2v2l-6 1-5-4-3-3v-3h-2v-8l5-10 5-5z" fill="#0D0225"/>
<path transform="translate(1023,345)" d="m0 0h67v1h-7v11h2l1 9-4 1-2-2-5-1-1-6v-9l3-2h-32l-10 1-2 1-2 15-8 4-7-2h-3l-6-2-5-12-3-3v-3z" fill="#040205"/>
<path transform="translate(1573,551)" d="m0 0h6l4 5v8l-7 12-7 6-10 2-9-7-3-5v-6l4-4 2-6h8z" fill="#0D0226"/>
<path transform="translate(1197,675)" d="m0 0 5 1 1 2 5 2h7l1 1v5h-2l-1 4-2 1-2 6h-3l-2 5-9 10-4 2-3-1-3-6-6-3-1-5 9-14 8-9z" fill="#190641"/>
<path transform="translate(806,545)" d="m0 0h7l6 3 5 2 1 3 5 1 1 5-10-1-12 7-6 8-11 7-4 3-5-1-1-11 2-3h2l1-4 3-3 2-3h2v-5l6-5 6-1z" fill="#190640"/>
<path transform="translate(1508,496)" d="m0 0 3 1-2 3 2 4-1 6-7 8v10l-2 3-3 1-14 1h-14l-2-5 4-8 3-3 4-7 4-2v3h10l7-2-1-7z" fill="#07000C"/>
<path transform="translate(795,420)" d="m0 0 7 1 13 2 3 3 2 6-1 5-6 1v2l-8 7-6 3h-9l-10-5 1-6 2-2 3-9 4-2h4z" fill="#0D0226"/>
<path transform="translate(1409,560)" d="m0 0h7l9 3 5 1 3-2h6l4 3v5l-3 3-5-1v-2l-10 2-5 3-5-2-5 1-1 1h-5l-4-4-3 1-3 4h-2l-1 6 1 4-2 6-4 3-1 3-4 2h-5l-4-2 2-14 4-4h4l3-6 7-2 1-5 13-2z" fill="#190641"/>
<path transform="translate(643,1763)" d="m0 0h1l1 10h2v18l1 21v40l1 12v8l2 2 18 1 27 1 3 1 19 1v1l-37 1h-39v-90z" fill="#0A0116"/>
<path transform="translate(880,410)" d="m0 0 12 2 6 8-2 5-3 4-7 4-3 1v2l-9 4h-15l-1-1v-9l8-10 7-8z" fill="#0D0226"/>
<path transform="translate(515,1641)" d="m0 0h2l2 6v49l1 37v10l3 3 9 1 29 1 7 2 29 1v1h-83v-109z" fill="#0C0317"/>
<path transform="translate(717,659)" d="m0 0 4 1 6 8-1 6h-2v4l5 1v1h-7l-2-2v-8l-4-4-8-1-1 3h-2l-2 4v5l5 2 1 3-3 6h-2l-1 5-5 4h-2l-1 3-10 7h-2v-2l-6-2 1-5 3-3v-7l-1-7h6l-2 5-1 2 5-4 3-10 6-4 7-3 5-5 3-2z" fill="#0A0116"/>
<path transform="translate(1347,346)" d="m0 0h2v2h7l2 3h4l1-4 7-1h11l-1 5 5 5 3 5v4l-8 3-4-1 2-4h2l-1-5-7-3h-7l-8 1-2 7 3 3-1 5-10 3-3 1-2 5-5 4-4-1v-12h2l2-9 2-2 4-1v-5l3-5z" fill="#0D0225"/>
<path transform="translate(636,344)" d="m0 0h94v1l-52 1-3 4-1 11h-4l-1-1-1-9-2-1-2 3h-4l1-5 1-2h-22l-2 4-12 3-8 1-4 6-5 1-4-1-6 2-1-3-2-1-1-3-10-8-18-1v-1h44z" fill="#0B0118"/>
<path transform="translate(1068,628)" d="m0 0h15l3 4 1 6-2 4h-3v2l-5 1-1 9-6 5h-8l-6-7-5-1-2-3 1-6 4-6 8-5 2-2z" fill="#0D0226"/>
<path transform="translate(1338,471)" d="m0 0h16l5 3 1 5-4 4h-2v2l-4 2-8 1 1 4 1 1v5l-8 9-5-2-4-6-5-3 2-12 4-2 1-5 4-4h5z" fill="#0D0226"/>
<path transform="translate(710,91)" d="m0 0h694l1 5h-5l-2-3h-467l-221-1z" fill="#0A0116"/>
<path transform="translate(1207,422)" d="m0 0h14l5 2 3 5v7l-9 5-5 6-4 1-6-3-2 5-6-1-7-4v-6l4-5 2-6 9-4z" fill="#0D0226"/>
<path transform="translate(1364,637)" d="m0 0h5l1 1 12 1v5l-7 8-1 4-4 3-1 7-5 3-7-1-9-7-7 7h-5l-2-4-3-1 1-4 6-3 9-1 11-1v-11l5-5z" fill="#190740"/>
<path transform="translate(889,343)" d="m0 0 43 1 10 2h3l7-1h20l-5 4-3-2-5-1v5l-2 2h-10l-2 4-4 3h-3l1 4-4 3-2 7-2 8-4-1-1-14 3-6 3-3 1-4 2-1 2-7-38 1-21-1v2l-7 1v-2h-55l-12 2-3 3-5-2-2-4-2-1 61-1h35z" fill="#18063E"/>
<path transform="translate(1011,546)" d="m0 0h7l8 4 2 2 7 2 1 4-5 1-6-1-12 5-5 6-3 4-6 2-2 4-5 4-4-2-1-1v-8l3-6h2l1-4 5-4 3-7 5-4z" fill="#190641"/>
<path transform="translate(1285,410)" d="m0 0h12l7 3 2 3v6l-5 2-11 1 4 6-1 3-5 3-2 3-15 1-3-2v-9l8-12 5-5h2v-2z" fill="#0E0327"/>
<path transform="translate(992,677)" d="m0 0h8l5 2 6 1 1 3-1 3-6 5h-3v6l-4 10-5 3-3 2h-6l-4-4v-2l-4-1-1-3 4-7 4-1 5 1-1-2-4-1v-8l6-6z" fill="#190741"/>
<path transform="translate(640,615)" d="m0 0h1l1 8 7 2 5 5 5-3 4 1 2 10-1 1-1 7h-2l-1 4-5 3-9 2-1 7-2 7-1 3-1 16h-1l-1-10z" fill="#0A0116"/>
<path transform="translate(1e3 422)" d="m0 0h13l5 2 3 5v7l-1 2-7 2-5 6-2 1h-6l-2-5-3-1 3 5v2l-7 1-9-4 1-6 3-5 2-5 8-2z" fill="#0D0226"/>
<path transform="translate(1500,349)" d="m0 0 4 1v5l-4 4-10 1-5 4-5 7h-11v3l3 1 4 8-1 4-12-1-4-2 1-16 6-9 3-1 1-5 2-2h3l-1 6 2 1 9-4 4-4z" fill="#0E0226"/>
<path transform="translate(1059,680)" d="m0 0h8v1l-6 1 5 6 8 2 8 6 2 2 5 1 6-2 2-5 4-4-1 8 7 8 1 3-3 5-6 4h-8l-4-4v-8l-11-1-5-3-4-6-6-3-10-1-5-4-1-4 1-1h9z" fill="#07000C"/>
<path transform="translate(832,461)" d="m0 0h9l11 3 2 3-5 2-3 5-7 3-7 1-2 5-6 2h-8l-8-4v-5l7-6 5-6 3-2z" fill="#1A0742"/>
<path transform="translate(386,483)" d="m0 0 4 2 1 2h7l9 7 3 7 1 2 3 1v2l-9 1 1 5 2 8-1 1h-13l-6-3-1-1v-6l2-3-1-5-2-3z" fill="#07000C"/>
<path transform="translate(1078,411)" d="m0 0h19l4 5 1 5-7 3-6 1-2 9-5 3-11 2-6-3-2-3 1-5 12-15z" fill="#0D0225"/>
<path transform="translate(1035,462)" d="m0 0h13l11 2 1 2-4 4-9 6-10 2-3 5-12 3h-4v-2l-5-2-1-5 4-2 1-3 8-7 2-2z" fill="#1A0742"/>
<path transform="translate(1156,524)" d="m0 0h9l4 3v5l-2 4-5 2-2-4-4 2-6 2-1 6-3 4-1 5 4 1 2 4-5 5-7 1v-5l5-2 1-3h-11l-4-4v-9l1-2 6-2 7-8 7-4z" fill="#1A0742"/>
<path transform="translate(808,1754)" d="m0 0h73l108 1v1l-92 1-10 1-13 1-29 1h-36l-16-1-15-1-11-1-2-2z" fill="#0A0116"/>
<path transform="translate(1659,1390)" d="m0 0h1l1 233h-12l-3-2 9-2v-38l2-47 1-104z" fill="#0A0116"/>
<path transform="translate(1243,461)" d="m0 0h7l6 2 8 1 1 2-1 2-6 1-1 4-9 4-6 1-3 5-5 2h-8l-8-4v-5l8-7 1-2h2v-2l5-2z" fill="#1A0742"/>
<path transform="translate(823,571)" d="m0 0h7l2 2 7 1-2 2-17 3-11 6-7 11-3 3-2 4-5 2h-7v-5l-5 2-3 3-4-1-2-3 1-4 6-7 3-5 5 1 4-1 4 2 5-1 12-11 11-1z" fill="#07000C"/>
<path transform="translate(942,615)" d="m0 0 13 1 4 6 1 6-9 2-3 2-1 3h-2l-1 3-4 2h-3l-1 3-6 2-3-2v-4l-5-1 1-5 11-13 4-4z" fill="#0E0327"/>
<path transform="translate(1595,473)" d="m0 0h68l1 6v28h-1v-22l-9 1h-22l-8-4-1-6-78-1v-1z" fill="#11091B"/>
<path transform="translate(385,729)" d="m0 0h66l37 1v1l-36 1h-66l-1 382h-1v-384z" fill="#C7C7C7"/>
<path transform="translate(1407,519)" d="m0 0 8 5 2 4v5l-5 5-11 2-6-1-1-1h-6l-9 13-3 4-5-1-3-2v-2h-2v-2l-7 2-2-2 6-2 6-4 4-2 4 4 5-1 3-5v-5l-2-4 1-2 7-2h8l7-3z" fill="#0A0116"/>
<path transform="translate(1323,703)" d="m0 0h5l5 2 4 1 4 3v5l-11 2h-9l-12 2h-9l-9-1-5 2v2l2 1-6 2h-4v-6l1-2 11-4h3v-2l5-2h4v-2l5-2h15z" fill="#190641"/>
<path transform="translate(1413,420)" d="m0 0 6 2 7 1 1 2 3 1 1 5-7 11-3 3-7 4-13-3-5-3 1-4 5-6 5-3 2-9z" fill="#0E0327"/>
<path transform="translate(591,468)" d="m0 0 5 1 2 4-1 5 7 2 2-4 5-6 2 1-8 10-6 10 12-5 10-5 2 1-5 4h-2l-1 6 5 5 8 1 4 4v4l-7 4-7-1-6-12-1-3-4-1h-11l-2-4-8-5-5-8 1-4z" fill="#0A0118"/>
<path transform="translate(591,420)" d="m0 0 8 1 6 1v2h4v2h3l1 5-5 8-4 5-15 2-1 1h-6l-5-4 1-4 2-2 1-7 4 2 4-1 1-6z" fill="#0E0327"/>
<path transform="translate(1215,546)" d="m0 0h7l7 3 2 3-1 4-4 3h-3v2l-8 5-4 1-1 4h-7l-3 1-1 4h3l-2 4-2 2h-7l1-11 1-3 3-2 2-4 5-4 3-8z" fill="#190641"/>
<path transform="translate(886,666)" d="m0 0h14l5 1 10 1h6v4h-2v2h-9v2l-4 3-5 1h-3l-4 2-2 6h-6l-3 3-7 1-1-3v-8l4-4 3-5 2-1z" fill="#190641"/>
<path transform="translate(552,558)" d="m0 0h4v11l-6 10h-2l1 10-2 7v2l9-1 1 1 14 1v1l-50 1 1-2 11-1 4-1h2l-2-5-6-3-5-5-3-8v-7l5 2v2h3l1 2 3 1 1 2h8l5-9 2-3z" fill="#0A0116"/>
<path transform="translate(513,346)" d="m0 0h7l4 4 3 7-1 4-2 4 5 2h4l-2 7v9l1 3-11 1-8 3v-27l2-1 1-6-4-1z" fill="#0A0117"/>
<path transform="translate(383,1369)" d="m0 0h2v254h-1l-1-6-1-127v-69z" fill="#F9F9F9"/>
<path transform="translate(258,1178)" d="m0 0h1l1 139 1 9h1l2 25v11l11 1 24 1 10 1v1l9 1v1h-60z" fill="#0B0317"/>
<path transform="translate(1283,648)" d="m0 0 10 2v5l-9 8-3 5-7 4-1 2h-2l-1 3-3 2-3 5-5 2h-3v-9l5-2 1-9 1-2 5-3 3-4-1-3h2l1-3z" fill="#1A0741"/>
<path transform="translate(1244,599)" d="m0 0 32 1 5 5-1 5-8 3h-6v-2l-4-1-18 3h-11l-3-2v-5l4-1v-2z" fill="#190641"/>
<path transform="translate(1010,545)" d="m0 0h9l7 3 5 3 5 2 9 9 1 2v7l-4 4-4-2-4-7-8-2h-7l-5 3-3 11-2 5-7-1-2 2-8 2-5 1-2-1v-11l2-5 1 4v6l4 2 6-5 4-4 4-2 4-6h2l1-3 12-5 11 1-2-4-7-2-6-4-3-1h-10z" fill="#0D0226"/>
<path transform="translate(1663,1369)" d="m0 0h1v40l-1 213-2 1v-247z" fill="#F1F1F1"/>
<path transform="translate(1533,1408)" d="m0 0h2v149l-2 1-2-7v-35l-1-52 1-24 1-9v-10l1-5z" fill="#A8AAA9"/>
<path transform="translate(648,653)" d="m0 0h7v6l5 3 1 1-1 10-1-3h-2l1 13 1 8-5 1-3-5v-4h-3l-3 6-3 1-1-2v-16l2-9 3-8h2z" fill="#07000C"/>
<path transform="translate(1410,344)" d="m0 0h54l4 2h-12l-15 2-5 3v8h-4v-3l-11 2v3l-6 2-2-4 1-3 3-3h-7l1 4h-3v-3l-6-2-3-2v-2h-2v-2z" fill="#090014"/>
<path transform="translate(1095,525)" d="m0 0h12l3 2-1 7-3 2-9 2-7 4h-2v2l-4 4-1 5-8 7-6 3-4-1-1-3 7-8 2-1 1-3 2-1 1-5 10-7 2-7z" fill="#190641"/>
<path transform="translate(899,678)" d="m0 0 5 1-1 2-8 1-1 5-3 6 5 1 1 1v13l-8 6-6-1-1-3-6-1-2-2-2-9 1-9 2-2 2 4h6l1-3 4-1 4 1 1-6z" fill="#0A0116"/>
<path transform="translate(1399,572)" d="m0 0 4 2v2h8 4l9-1-1 9-7 5h-2l-2 6-10 4-3 4-5 1-8-5v-1l9-2 4-3h2v-7h-6l-3-5 5-6z" fill="#0A0116"/>
<path transform="translate(1545,475)" d="m0 0h49v2h2l-1 5-5 3-2 3-7 1-3-1-13-1-10-4v-2h-8l-2-2z" fill="#0A0116"/>
<path transform="translate(802,618)" d="m0 0 2 4-2 8-6 7-8 6-9 4h-3v5l-3 4-1 5-6 4-3 3-4-1-3-4 1-4 6-5 3-1 3-5 3-2 3-5 2-1h6l1-8 3-1v-2l7-3 5-4z" fill="#18063F"/>
<path transform="translate(576,576)" d="m0 0h1l1 11 4 5 4-2 11-5 5-6v3l-3 4 1 11 7 1h31l3 1 17 1 5 3v5l-4 2h-11l1-2h8l3-2v-2l-3-1-5 2-5-2-10-2-66-1-7-1v-1h8l1-7 2-3z" fill="#0A0116"/>
<path transform="translate(639,462)" d="m0 0 9 1 8 2 5 3 4 1v2l11 1 8 3 3 9 1 8-8 1-4-3 1-4 1-3-2 1h-6l-2-1v-2l-4-1-3-3-2-6-9-1-12 5-7 3-5 2h-3l4-4 7-2 7-4 3-4v-2l-5-1z" fill="#190641"/>
<path transform="translate(1146,614)" d="m0 0h9l7 3 1 1v8l-8 4-7 4h-11l-2 2 1 6-5-1-2-4 1-6 8-10z" fill="#0D0226"/>
<path transform="translate(762,344)" d="m0 0h13v1l-13 1-1 2v-2h-7v7l-12 1-4 2-1 7 1 4-6 4-2 4-5 3v-2l-4-2 1-10 8-11 2-2 1-4-3-2z" fill="#0E0327"/>
<path transform="translate(1181,705)" d="m0 0 5 2 2 3v3l6-1 6-5-2 4-1 3 10 1 1 5-6 8v1h-72v-1l50-1-2-5 4-4 1-9v-2h-2z" fill="#07000E"/>
<path transform="translate(931,671)" d="m0 0 9 3 5 2 2 4 3 1 2-3 4 1v5h2v14l-3 2h-6l-1-2-3-1-3-5-7-4-4-4-2-11z" fill="#0D0225"/>
<path transform="translate(891,524)" d="m0 0h11l5 3-1 7-5 5-9 4-7 1-2 2 1 7 5 1h5l2 4-2 4-9 2-2-1h-8l-5 3h-9l-3-5 1-4 2-3 2 1-2 3v3h5l5-5 6-4 2-7 5-4 3-4 7-3 7 1 3-2 1-5-5-2-9-1z" fill="#0D0226"/>
<path transform="translate(1525,396)" d="m0 0h6l3 2v4l-8 2-11 2-6 5-3-1v-2l-7 1-6 7h-2l-2 7-6 8-6 1-2-4 3-6 1-5 9-7 14-7 8-2 7-3z" fill="#190641"/>
<path transform="translate(1041,600)" d="m0 0 6 1 23 1 3 3-1 4-4 3-4 1-2-4-8 2-4 3-8 1h-4v-2h-6l-3-2-6-2 1-3z" fill="#1A0742"/>
<path transform="translate(1234,460)" d="m0 0h17l16 2 7 3v2l-13 5-7 5-7 2h-4l-1 4-9 4-6 2-2 3h-15l-3-6v-5l2-2 5-1 3-5 10-9zm9 1-11 3-3 1v2h-2l-9 9v5l8 4h8l6-3 2-4 9-2 6-3 1-4 6-1 1-3-1-1-11-2-3-1z" fill="#0D0226"/>
<path transform="translate(748,522)" d="m0 0h7l5 3 6 3 1 4-2 4-9 6-11 1-1 5-2 3v11l-3 3-8 2-4-3 1-5 2-3-8-1 1-2h10l4-6h2l1-9 6-1v-2h2v-2l8 1 3-1-1-7-1-1-13-1z" fill="#0D0224"/>
<path transform="translate(673,410)" d="m0 0h7l8 3 1 3 6 4-1 4-5 4-4-1v-3h-6l-3-2h-5l-4 5-2 1-1 5 2 2v3l-6 1-5-1v-6l5-9 2-1 2-4 5-5z" fill="#0E0327"/>
<path transform="translate(704,717)" d="m0 0 1 4-2 5 7-1v-3h-2l-1-3 1-2h7l1 6-1 2h2l2 2h2v-2l-4-2 1-5 9 1h9l8-1h10l6 1-1 6 3 1h-4l-3-3-5-1h-12l-10 4-1 1 94 2v1h-50l-69-1-4-2-1 1h-7v-1l6-2 4-2z" fill="#0A0116"/>
<path transform="translate(1359,369)" d="m0 0 2 1-4 6h-4-6l-2 3v3l4 2v3l-5 4v6l-5 5-6 3-9-1-2-1 1-6 4-8 3-3 2-5 2 2 5-1 4-5 4-4 11-3z" fill="#07000D"/>
<path transform="translate(687,525)" d="m0 0h9l4 2-1 6-5 4h-4v-2l-7 1-3 1-2 4-4 6-2 5-7 8-5 7-4-4v-5l4-2 3-7 3-3h2l2-7 4-2v-2l4-2 2-6z" fill="#190641"/>
<path transform="translate(824,460)" d="m0 0h18l19 4 4 2-1 2-5 2-7 1-3 3h-2v2l-7 2h-7l-1 6-13 4h-2l-1 3-2 1h-13l-3-3-1-8 2-2 5-1 7-8 10-9zm8 1-9 1-7 6-8 8v5l8 4h8l7-3 1-4 10-2 6-4 1-3 5-2-2-3-11-3z" fill="#0D0226"/>
<path transform="translate(1135,345)" d="m0 0h40l-2 1-1 3h-3l-1-2-4-1-1 5-9 3-8 5-3 6-2 9-2 4-7 2-2-1v-9l2-7h2l1-4 4-7 4-1 4 1 4-1 1-2-5 1-5-2v-2h-7z" fill="#1B0940"/>
<path transform="translate(974,702)" d="m0 0 3 3 3 1 4 5h6l6-4-1 7 5 2 1 1v5l-5 5 9 1v1h-52v-1h22v-6l2-4v-9l-3-4z" fill="#07000C"/>
<path transform="translate(1467,470)" d="m0 0h2l1 3-1 20-1 1 1 10-3 3-4 1-3-1v-2h-2l-1-5-4-2-1-2v-6l6-9 4-2 2-6z" fill="#0E0226"/>
<path transform="translate(1281,667)" d="m0 0v3l-7 5-5 7 2 5 5 3-1 5-4 4-8 10-6 2-7-2-2-2 1-4 8-5 3-1-1-6-3-3v-2l8-3 4-6 3-3h2l1-3z" fill="#0E0327"/>
<path transform="translate(1280,469)" d="m0 0h9l8 3 3 2-1 12 3 1v5l-3 1h-7l-3-2v-3h-2v-2l-6-1-5-6v-6z" fill="#0E0327"/>
<path transform="translate(839,715)" d="m0 0h7l10 9v4h97l52 1v1h-68l-101-1v-2h-6l2-5 5-6z" fill="#0A0116"/>
<path transform="translate(1787,1234)" d="m0 0h1l1 90v42h-9v-2l3-1v-26l1-7 1-26 1-69z" fill="#0D0518"/>
<path transform="translate(735,700)" d="m0 0h7l2 3 7 1-3 9-1 1h-6l-1 1h-9l-3-1v2l-6 1-5-1-2 1h-7v5h2v3l-7 1 1-5 2-5 3-3 7-1 4-3 8-2v-2l3-1 1-2h3z" fill="#190641"/>
<path transform="translate(1288,663)" d="m0 0 4 4 1 5-2 9 8-3 9-1-2 3-9 2-4 3-4-1-5-1h-2l-3 9-9 9 2-5 3-2 1-4-5-2-3-4 2-5 5-6 9-6z" fill="#07000C"/>
<path transform="translate(929,472)" d="m0 0h9l9 3 3 2-1 5-5 4-3 2h-14v-2h-5l-5 6h-1v-7l3-7 4-4z" fill="#190641"/>
<path transform="translate(1180,395)" d="m0 0h13l2 1v2l4-2 11 1 3 3v6h-8l-1-1h-5l-6 3h-5l-3-2-7-1-1 4-6-1-3-5z" fill="#190641"/>
<path transform="translate(1083,677)" d="m0 0v3l-3 1v5l13 1 4-1 2-4 5-1v2h-2l-2 6-5 8-7 3-5-2-6-5-5-3-6-1-6-7v-1l14-1z" fill="#0E0327"/>
<path transform="translate(975,395)" d="m0 0h8l7 2h4l3-1 8 2 4 2-1 4-3 3h-5l-1-3-9 3-8 1-6-2h-2l-1 3h-5l-3-6h2v-2z" fill="#190641"/>
<path transform="translate(1229,562)" d="m0 0 6 1 7-1 1 1v10l3 1 4-1-4 4-6 1-13-2-3-3h-5v6l-3 6-3 1-8-1-11 3-4-2 14-5 3-1 5 2h3l1-10 5-5z" fill="#0A0116"/>
<path transform="translate(1121,483)" d="m0 0 1 2v5l6-5 4 2v2h9l7-3 5-3-1 4h-3v2l-6 4-3 7-8 7-7-1-4-4-3-5v-8z" fill="#0D0225"/>
<path transform="translate(1127,379)" d="m0 0 3 3 6-2 4 1 1 1 4 2-1 4-5 3-1 8-7 3-3 3h-7l-2-1 1-10 4-8z" fill="#07000C"/>
<path transform="translate(1098,523)" d="m0 0h11l3 3v6l-5 6-9 5-9 2-2 3v9l5-2 1-1h5l2 3-1 5-4 2h-6l-5-3-10 3-1 1h-8l-2-4 1-5 5-5 2 1-6 7v3l7-1 6-5h2l1-3h2l1-7 4-2v-2l11-6 7-1 3-1v-7l-2-1-12-1z" fill="#0D0226"/>
<path transform="translate(868,469)" d="m0 0 11 1 7 3 4 5 2 10v4l-5 2-6-3-2-4-7-2-5-7v-8z" fill="#0E0327"/>
<path transform="translate(1109,535)" d="m0 0v3l-3 1v2l-3 1 1 7 1 2v6l-3 6-7 3-8 2-22-1v-2l8-1 9-4 6 2 1 1 9-1 1-5-1-2h-5l-2 2h-4l-1-9 3-4 11-3z" fill="#090015"/>
<path transform="translate(1135,671)" d="m0 0 4 1 7 3v2l4 1h10l1 1-1 7-3 1 1 5 2 3v4l-5-2-7-2-1-4-5-2-5-4-2-9z" fill="#0D0225"/>
<path transform="translate(1073,470)" d="m0 0h13l5 4v2h2l2 3 1 8h2l-1 5-1 1-9-1-2-1 1-5h2l-1-4-5 3-6-1-5-3v-8h2z" fill="#0D0225"/>
<path transform="translate(845,609)" d="m0 0h13v2l9-2-5 5-21 3-7 3-12-1-10 4-3 5-10 10-2 7-1 12-2 3-2-10-1-4 3-2 3-7 7-7 6-10 10-5 7-2z" fill="#08000F"/>
<path transform="translate(754,405)" d="m0 0h5l-2 4-14 10 5 1 1-2h5l1 4-8 8-9 3-5-1-1-1v-11l5-5 5-3 1-2z" fill="#190640"/>
<path transform="translate(858,624)" d="m0 0h9l9 1 4 2 1 3 3 3-1 5-1 3-7 4-7-1-8-5h-5l1-2 7-1 1-4 2-5-4-1-4 2h-3v-2z" fill="#0D0225"/>
<path transform="translate(719,472)" d="m0 0h14l8 1v2l4 2v3l-6 6-14-1-4-2-4 1-5 3-1-2 4-9z" fill="#190640"/>
<path transform="translate(956,404)" d="m0 0 4 1-6 8-4 5v2h3l4-4 3 1 1 4-4 6-5 3-7 2h-6l-3-4 1-7 5-5 6-4 2-4 5-3z" fill="#190641"/>
<path transform="translate(1537,352)" d="m0 0h1v24l-1 92h-1l-2-16v-6l-9 1-5-5-2-3-5-2-2-3v-4h4l2 6 5-2 12 1 1-2 1-61z" fill="#1D162C"/>
<path transform="translate(384,475)" d="m0 0h1l1 7 1 18 3 5-1 4-1 2v6l6 3h8l7 4v5l-15 2h-5l-1 5-2 3-1 5h-1z" fill="#0A0116"/>
<path transform="translate(964,526)" d="m0 0 7 2 1 4-5 6-7 3h-6l-4-2-3 3-3 5 1 6 3 4-1 5-10 5h-5l1-7 2-3-9-3-2-1v-11h1l2 10 2 1h11v-5h2l2-5 3-6 5-4 4 1 1 4 5-3 4-5z" fill="#0D0226"/>
<path transform="translate(1160,405)" d="m0 0h4l-1 5-8 7h-2l1 3 4-1 3-3 3 1v7l-4 4h-2v2l-10 3-5-1-1-1v-9l7-8 8-7z" fill="#190641"/>
<path transform="translate(680,681)" d="m0 0h6l-2 5-1 2 5-3-2 4-1 4 5-2 2-4 8-4 5 1-1 8-6 5h-2l-1 3-10 7h-2v-2l-6-2 1-5 3-3v-7z" fill="#0E0327"/>
<path transform="translate(661,608)" d="m0 0 1 2-1 9 3 8v7h-1l-1-6-5 1-4 2-5-6-7-2v-10l5-4h13z" fill="#07000D"/>
<path transform="translate(680,676)" d="m0 0 1 3 1 16-6 5-5 2v11l-3 2-4-1-3-7v-7l2-2h4l-1-4h-2l-4-7v-5l4 5 4 2h8l3-12z" fill="#07000C"/>
<path transform="translate(1157,522)" d="m0 0h7l5 2v2l6 1 1 6-8 7-9 1-6-1-5 8 1 4 3 4-1 5-6 4-6 1-4-1-1-8-4-2-1-2v-12h1l1 9 3 3h9l2 1-1 4-5 1v5l9-3 2-4-2-3-3-1v-5l4-6 1-4 8-5 3 1 1 4 5-2 1-9-3-2h-14l3-2z" fill="#0D0226"/>
<path transform="translate(671,421)" d="m0 0h5l5 2 4 1 1 3 4-1 3-2-2 4-8 6-7 2v2l-7 3-9 1-6-3 1-4v3h11l-3-6 2-5 5-5z" fill="#090014"/>
<path transform="translate(767,396)" d="m0 0 2 1-8 6-1 4 9 3 1-3 4-1h10l6-2h4l1 2 8-1-3 3h-6l-4-1-10 4-3 3-12 1-4-2v-2h-3v7l-3 8-6 4-2-1 6-5 1-5-5-1-1 3-6-1 5-5 11-8 1-2-9 3-4 1 5-5 7-3 6-3z" fill="#0D0226"/>
<path transform="translate(513,464)" d="m0 0h1v8l7-3 5 3 6 1-4 2-1 1-9 1-6 5h-2l-1 4-3 2-10 1 2-5 8-5-2-6-8 1-7-1-43-1v-1l67-1z" fill="#130D18"/>
<path transform="translate(897,540)" d="m0 0h3v2h-2l2 7-1 10-5 5h-6v2l-4 1-13 1h-10l-3-3 1-4 2 4h9l5-3h8l3 1 8-1 1-5-1-2h-9l-3-5 1-5 2-2 10-2z" fill="#090012"/>
<path transform="translate(1478,517)" d="m0 0h4v2l8 1h8l2 7-1 3-3 1-12 1h-13l-1-1 1-7 4-5z" fill="#0A0116"/>
<path transform="translate(1068,628)" d="m0 0h15l3 4 1 6-2 4h-3v2l-5 1-4-2-5 1-3-3-1-2-3-1 3-9z" fill="#0D0226"/>
<path transform="translate(976,644)" d="m0 0h8l5 4-1 5-12 6-5 6-2 4-5-1-2-7v-8l5-3h7z" fill="#0D0226"/>
<path transform="translate(1443,565)" d="m0 0 2 2-1 5-3 4h-6l-3-3-7 1-5 3h-5-4-6l-2-1v-2l-4-1-3 5-3 3 2 4h6l1 1-1 7-8 5-9 2-2 1h-7l-2-3 8 1 4-1 1-4 3-4 2-5-1-5 2-4 7-6 5 3v2l6-2 5-1 5 2 8-4h7l1 2 5-1z" fill="#0D0226"/>
<path transform="translate(1222,611)" d="m0 0h2l2 4-1 4 2 2v5l-6 7h-2l-1 3-9 1-3-1v-11l3-3 6-2 3-6z" fill="#18063F"/>
<path transform="translate(708,665)" d="m0 0h8l5 5v8l1 1 7 1-1 2-16 4-7 5-1-3 3-3 1-5-6-3v-5z" fill="#07000C"/>
<path transform="translate(1488,429)" d="m0 0h5l4 4 10 1 11 7 3 5v2l8 1 4 3 2 9v9l-1 3-2-1-1-6-2-4h-8l-3-4-1-10-1-5-8-2-4-4-10-2v-2l-8-2z" fill="#07000C"/>
<path transform="translate(1018,611)" d="m0 0 3 1-2 6 1 4h4v6l-5 4-10 5-5-1-2-3 1-9 6-4 4-6z" fill="#1A0742"/>
<path transform="translate(1e3 463)" d="m0 0h4l-1 7-2 5 6 2-1 2-6 2 1 4 2 5 5 1v2h-5l-7-4-4-4-1-4 1-2-6 1-5 2-5-1 1-4 20-10z" fill="#07000C"/>
<path transform="translate(559,346)" d="m0 0h7v1l-6 2-1 1-1 9 9 3 1 6-2 3-7 3-7 1-2-1-4-10v-2h-5l4-3 10-6v-4h2v-2z" fill="#0A0118"/>
<path transform="translate(1163,620)" d="m0 0h1v7l-5 1-2 5-6 10-5 4-5 3h-5l-6-5-1-8 3 4 4 1-2-3 1-4 2-2h11l7-4 7-3z" fill="#090015"/>
<path transform="translate(721,364)" d="m0 0h1v10l4 3 3-2-1 9-4 1-3-1 5 3-1 7 2 5-12 6-7-2 3-10 2-3h2l2-4 1-1z" fill="#07000C"/>
<path transform="translate(1024,604)" d="m0 0h5l-3 2-2 1v2l14 4v2l12-2 6-4h6l3 3 3 1-5 1-5-3-6 4-9 4h-9l-7-2h-2l1 9-1 6h-3v2l-7 3h-6l3-2 10-6 2-7-5 1-1-5 2-6-6 2-3 2 2-4z" fill="#0D0226"/>
<path transform="translate(1576,552)" d="m0 0 3 1v6l-3 7-9 2h-9l-3-1-2 1-1 4-4-1-1-5 7-6 10-4 9-3z" fill="#1A0742"/>
<path transform="translate(1508,473)" d="m0 0h6l5 2 10 1 3 3-3 3-10 2v-2l-8-2-4 6-9 3-1 2h-2l-1 3-3 1-1-3 1-3h2v-3l2-1 1-3 8-8z" fill="#190641"/>
<path transform="translate(1195,501)" d="m0 0h5l3 4v2l5 2 5 4 5 3-2 5-7 1-8-1-2-3-5-2-3-9 2-5z" fill="#0E0327"/>
<path transform="translate(1338,472)" d="m0 0h14l3 3 2 4-4 4-6 2-8 1-2-4h-5l-1 4-4 3h-2v-6l3-1 1-5 4-4z" fill="#190640"/>
<path transform="translate(604,546)" d="m0 0h8l5 4 1 3-8 4-7 4-5 6-5 1-4-5 1-4 3-1 2-7 8-3z" fill="#1A0841"/>
<path transform="translate(1115,438)" d="m0 0 11 1 2 1 1 7h-2v2l-8 4-4 4h-7l-5-2-1-1v-5l5-4 7-1z" fill="#0D0226"/>
<path transform="translate(639,1753)" d="m0 0h3v29l-1 97-2-4-1-28v-31z" fill="#F8F8F8"/>
<path transform="translate(1458,379)" d="m0 0h1l1 5 12 2h3l2-2-1 4-1 1h-6l3 7v4h-7l-7 3h-5l-1-1 1-13 3-3z" fill="#080010"/>
<path transform="translate(1358,643)" d="m0 0 2 4v2l6-1 1 2-2 4-3 1-2-1-1 3-7 1 2 6h2l-1-3 3-2h3l-1 4v4l5-2 4-2-1 4-4 2-7-1-9-7-7 7h-5l-2-4-3-1 1-4 6-3 9-1 11-1z" fill="#0D0226"/>
<path transform="translate(511,1625)" d="m0 0h2l1 127h30v1h-31l-2-4-1-32v-21z" fill="#F8F8F8"/>
<path transform="translate(1350,555)" d="m0 0h7l9 3 4 2 1 7-6 2-10 1-1 1h-5l-4-4 1-8 4-2z" fill="#0A0117"/>
<path transform="translate(535,1499)" d="m0 0h48l53 1v9l-6-4-6-2h-22l-63-1-19-1v-1z" fill="#9A9C9B"/>
<path transform="translate(710,438)" d="m0 0 8 1 1 2v6l-5 4-14 7-7-2-1-1v-6l3-3 10-2z" fill="#0D0226"/>
<path transform="translate(1402,406)" d="m0 0h6l4 4-6 1-2-1h-7l-6 7-5 2 1 5 1 2h-2l-2 4-5 3-3-2v-7l1-6-5 1-2 1 2-5 2-4 6-1 6 2h5l5-4z" fill="#07000C"/>
<path transform="translate(483,567)" d="m0 0h7l2 2v5l-4 5-8 5-6 2h-9l-1-4 8-4 1-5h2l1-3h2v-2z" fill="#190641"/>
<path transform="translate(427,219)" d="m0 0h169v1l-129 1-72 1-4 4-4-1v8h-1v-13z" fill="#0A0116"/>
<path transform="translate(1347,660)" d="m0 0 5 3 5 4 7 1 3-1-1 10-5 3-10-1-4-3-2-5-10-2-2-2 1-3 2 3 7-1z" fill="#07000D"/>
<path transform="translate(1185,644)" d="m0 0h7l1 1v6l-4 4-5 2-4 2-2 5-5 2-6-7v-7l1-1 11-1 4-5z" fill="#0D0225"/>
<path transform="translate(825,552)" d="m0 0 6 1 9 10 2 4v3l-3 2h-6l-3-5-1-2-12-2-6 3-1 2h-2l-2 6h-2v2l-12 6-2-1 5-4 9-6 4-6 9-6 4-2 7 1 3 1-1-4-5-2z" fill="#0D0226"/>
<path transform="translate(807,692)" d="m0 0 8 2v7l-4 1-2 5-6 3h-6l-4-4v-9l3-3 9-1z" fill="#18063D"/>
<path transform="translate(764,345)" d="m0 0 3 1-5 7 1 8 5 1v-2h3l2 3v6h-8l-6 1-5-6-2-7-3-2-7-1v-1h12v-7h8z" fill="#0A0116"/>
<path transform="translate(1403,1805)" d="m0 0h1l1 48v26h-18l-5-1v-1l13-2h5l-1-22 3-27z" fill="#090015"/>
<path transform="translate(1322,438)" d="m0 0h6l6 4v5l-6 3h-3l-1 4h-2v2l-6 2-9-4 1-6 4-3 8 1z" fill="#0D0226"/>
<path transform="translate(907,589)" d="m0 0 12 3-1 4-8 5-5 5-6 3-4-2-1-8 3-5 3-4z" fill="#18063F"/>
<path transform="translate(964,349)" d="m0 0h4v5l1 2v6l5-3 5 2v8l-9 2-6 1-3-3-5-3-1-3 6-4v-7h2z" fill="#0A0116"/>
<path transform="translate(719,654)" d="m0 0 8 1v3l4 2 8 6-1 7-3 5-2 1h-7l-2-1v-4h2v-6l-3-3-3-5h-7l5-4z" fill="#0D0226"/>
<path transform="translate(1539,525)" d="m0 0h26l3 3v3l-16 2h-17v2l-5 1-4-4v-3z" fill="#190641"/>
<path transform="translate(1384,345)" d="m0 0h17l-4 1v2h2v2l5 2 4 2-1 3v-2l-6-1-5 5-4-1-1 6-4 2v-5l-2-4-5-4-1-4 2-3z" fill="#07000C"/>
<path transform="translate(798,464)" d="m0 0 4 1-1 5-2 5 6 2-1 2-6 2 1 8 2 3-4-2-5-5v-4l3-3-3-1-14 5-4-1 1-5 15-6z" fill="#07000C"/>
<path transform="translate(915,439)" d="m0 0h5l4 3v6l-11 6-4 3h-9l-3-3 1-6 5-3h8l2-5z" fill="#0D0226"/>
<path transform="translate(621,481)" d="m0 0 2 1-5 4h-2l-1 6 5 5 8 1 4 4v4l-7 4-7-1-6-12-1-3-8-2 2-1v-2z" fill="#080010"/>
<path transform="translate(1531,1667)" d="m0 0h1l1 59v25h-23l-4-2 21-2 1-6v-16l1-6 1-29z" fill="#0A0115"/>
<path transform="translate(786,501)" d="m0 0 5 1 3 4 3 1v2l4 2 5 3 2 1-1 5-6 1-2-4-3 4-5-2v-5l-6 1-2-3v-3h-2l1-5z" fill="#190641"/>
<path transform="translate(1048,461)" d="m0 0h14l9 2 5 4 13 2 8 10v8l-2-2-2-9h-2l-5-5-13-1v3h-2v6h-1v-7h-10l-11 4-2-1 10-7h2v-3l-11-2z" fill="#090013"/>
<path transform="translate(1535,1627)" d="m0 0h1v27l-1 96-2 1v-120z" fill="#DEDFDE"/>
<path transform="translate(1517,535)" d="m0 0 1 4h-2l1 5 3 2 1 7-5 4-6 2h-8v-8l1-2h2l1-5 7-6 1-2z" fill="#18063F"/>
<path transform="translate(548,402)" d="m0 0h5l-6 7-4 3v6l2 3-1 8-3 2h-10v-8l3-7 3-3 3-6 4-4z" fill="#190641"/>
<path transform="translate(1315,589)" d="m0 0h7l5 3v4l-10 8-5 3h-5l-3-5 2-5 3-5 6-1z" fill="#190640"/>
<path transform="translate(1407,1757)" d="m0 0h1v120l-1 2h-2v-111l1-10z" fill="#DADADA"/>
<path transform="translate(653,1627)" d="m0 0h48l60 1 3 1v8l-5-2-3-3-10-1-39-1-56-1z" fill="#9C9E9D"/>
<path transform="translate(1109,590)" d="m0 0h8l6 2-1 5-6 3-6 5-3 2h-5l-3-7 2-5 2-3z" fill="#190641"/>
<path transform="translate(1372,519)" d="m0 0 4 2 1 2 2 1-1 2-4 1 2 2-3 7-10 8-3 1-2-3 1-6 7-14z" fill="#190641"/>
<path transform="translate(853,639)" d="m0 0 2 1-3 1v2l-4 2h-3l-1 13-4 4h-10l-3-3-6-2v-7h1v5l5-2 10-6z" fill="#0D0224"/>
<path transform="translate(1346,351)" d="m0 0h6l3 3-2 7-4 3h-2l-2 7-10 10 1-5-2-5 4-10 5-2v-5z" fill="#190641"/>
<path transform="translate(989,502)" d="m0 0 7 1 5 5 9 6 1 4-1 2h-7l-5 1-2-1v-6h-6l-2-1-3-9z" fill="#190641"/>
<path transform="translate(700,590)" d="m0 0h9l5 2v4l-6 3-4 4h-2l-2 4-2 2-5-1-1-10 4-6z" fill="#18063E"/>
<path transform="translate(639,344)" d="m0 0h91v1l-52 1-3 4-1 11h-4l-1-1-1-9-2-1-2 3h-4l1-5 1-2-23-1z" fill="#1D1724"/>
<path transform="translate(1339,718)" d="m0 0 2 2v8l-12 1-30-1 1-4 7-1h14l12-4z" fill="#06000C"/>
<path transform="translate(584,566)" d="m0 0h7v5l-3 4 1 5 5 2-1 4-8 1-4-2h-4v-12l5-6z" fill="#1A0840"/>
<path transform="translate(1647,541)" d="m0 0h5l1 1 1 12-2 1-5-1-11 6h-5l3-9 10-9z" fill="#1B0941"/>
<path transform="translate(1284,537)" d="m0 0h7l2 6-5 4 1 7-10 5-3 3h-5l-1-4 5-7 7-6 1-7z" fill="#190641"/>
<path transform="translate(1270,460)" d="m0 0h3l5 5 3 1h8l9 2 4 4 1 6-1 9-3-1v-12l-3-2-10-2h-6l-3 3-1 6-2-3v-2h-13l-4 1 4-4 11-4h2l-1-2-11-3v-1z" fill="#090015"/>
<path transform="translate(1292,344)" d="m0 0h40l7 1v1l-51 1 1 15-4-2-4-8-1-4 1-1h-44l-12-1v-1z" fill="#28252B"/>
<path transform="translate(1407,218)" d="m0 0h1v105l-1 21h-1l-1-6 1-113z" fill="#737475"/>
<path transform="translate(1164,346)" d="m0 0 5 1v2l5-2v10h6l3 5-1 7-5-1-1-5h-4l-1 7-4-1-1-6 1-5-3-5-2-2z" fill="#0E0327"/>
<path transform="translate(842,460)" d="m0 0 15 1 6 1v2l4 1 2 2h17l3 5 4 5v8l-2 3-2-10-3-3v-2l-4-1-9-2h-5v8l4 6-4-2-3-2-2-7h-4v-2l-10 3 3-4 9-2 3-2-11-3-11-2z" fill="#090015"/>
<path transform="translate(528,474)" d="m0 0 6 1 3 2-1 5-3 4-11 1 1-4-4-1v2h2l-1 3-7-1-2-4 7-6 9-1z" fill="#190641"/>
<path transform="translate(1035,345)" d="m0 0h55v1h-7v11h2l1 9-4 1-2-2-5-1-1-6v-9l3-2-42-1z" fill="#090116"/>
<path transform="translate(504,494)" d="m0 0 10 2 1 1v10l2 1-3 2-9-2-5-2-7-1 3-4 3-6z" fill="#07000E"/>
<path transform="translate(1359,409)" d="m0 0 3 1 1 4-2 3-3 1-1 4 9-2 1 2-3 5-5 3-12 1v-7l1-4 4-3h2l2-4z" fill="#190641"/>
<path transform="translate(1500,409)" d="m0 0 4 1v3l12-1-2 4-3 3-4 2-2 6-6-1-2-1v-2l-4-2-1-4 5-4 1-3z" fill="#07000C"/>
<path transform="translate(603,560)" d="m0 0 2 1-8 10-6 2-1 5h4l3-6 6 1 1 4-8 10-10 4-4 2-5-6v-2l5-1v2h8l3-1v-3l-5-2-1-6 3-3 1-5 5 1 5-4z" fill="#0E0327"/>
<path transform="translate(579,503)" d="m0 0 6 1 1 4h2l2 4 9 1 4 3-1 5-3 1h-10l-3-1v-7h-6l-1-2z" fill="#0C0221"/>
<path transform="translate(1397,346)" d="m0 0h9v2l2 1h-4v2h14l3-3h13l-1 4-4 3h-2v2l-6 1v3l-6 2-2-4 1-3 3-3h-7l1 4h-3v-3l-6-2-3-2v-2h-2z" fill="#0E0327"/>
<path transform="translate(920,389)" d="m0 0 7 1 7 4v6l-1 1-9 2-2 1h-6l-2-2 2-10h2v-2z" fill="#090014"/>
<path transform="translate(511,1242)" d="m0 0h1l1 19 1 5v6 4l1 21-1 25-1 1-1 20h-1z" fill="#E7E8E7"/>
<path transform="translate(460,529)" d="m0 0 5 1 2 3-1 7-3 3-16 3h-4v-8l9 2v-5l4-3 3-1z" fill="#1A0742"/>
<path transform="translate(580,470)" d="m0 0h6l-4 2 1 6 4 6 5 2v2l3 1 1 4 3 1h-5l-8-5-15-10-2-2 1-5z" fill="#07000C"/>
<path transform="translate(1207,464)" d="m0 0h3l1 4-3 6-4 3-16 6-4 1-1-5 5-4 16-8z" fill="#07000C"/>
<path transform="translate(1282,647)" d="m0 0h6l8 3 6 2 3 3 1 7-3 3h-8l-3-4-5 1-4 4 1-4 8-7 1-5-14-1z" fill="#0D0225"/>
<path transform="translate(1146,614)" d="m0 0h9l1 3 4 2v4l-6 5-5 1 1-5 1-3-5 2-10 6-2-1 2-5 8-8z" fill="#18063D"/>
<path transform="translate(1029,346)" d="m0 0h16v1l-10 1-2 1-2 15-8 4-7-2v-3l3-3 2-6 1-2 7-2z" fill="#08000F"/>
<path transform="translate(1500,349)" d="m0 0 4 1v5l-3 3h-6l-1-4-6 2 1 3-8 5-2 4h-4v-8l3-3 7-3 4-4z" fill="#1A0742"/>
<path transform="translate(1195,408)" d="m0 0 2 1-9 3-7 8-5 3-8-1-3 5-1-2 3-11 1-5 5 2h8l9-2z" fill="#090015"/>
<path transform="translate(433,502)" d="m0 0h19l3 1v4l-23 1-8 1h-11l-6-2v-1l16-3z" fill="#281F3A"/>
<path transform="translate(659,627)" d="m0 0 4 1 2 10-1 1-1 7h-2l-1 4-5 3-4-1-1-7 4-5 3-7z" fill="#1D0D3F"/>
<path transform="translate(523,569)" d="m0 0 5 2v2h3l1 2 3 1 3 3 8 3v3l-7 1-2 2-7-1-5-4-2-7z" fill="#190641"/>
<path transform="translate(1370,346)" d="m0 0h11l-1 5 5 5 3 5v4l-8 3-4-1 2-4h2l-2-7-1-5-1-1-1 2-7 1-10 1-2-3h6l1-4z" fill="#0B011B"/>
<path transform="translate(1436,469)" d="m0 0h7l1 4-3 9-8 4-8 1-1-5h2l1-6h5l2-5z" fill="#1A0742"/>
<path transform="translate(1331,448)" d="m0 0h2v2h-2l-2 4-5 4-4 2-6 7-5 1-4-4v-13l3-2v5l10 3 4-1v-2h2l1-4z" fill="#090014"/>
<path transform="translate(942,615)" d="m0 0h7l6 3 1 1v5l-5 3-1 2h-5v-4l2-4-7 1v2l-6 3-5 2 2-6 7-7z" fill="#190640"/>
<path transform="translate(1327,390)" d="m0 0 7 1v2l8 1-1 5-5 2v2l-3 2-9-1-2-1 1-6 3-6z" fill="#090015"/>
<path transform="translate(1254,386)" d="m0 0 9 1 1 4-9 3-4 3-3 6-4 1-3-5v-6h3l2-4z" fill="#18063D"/>
<path transform="translate(542,521)" d="m0 0h5l3 3 7 4 2 4-3 3-16-1-2-4 1-7z" fill="#07000E"/>
<path transform="translate(841,344)" d="m0 0 47 1v1h-10v2l-7 1v-2h-55l-12 2-3 3-5-2-2-4-2-1z" fill="#2E2C30"/>
<path transform="translate(1478,219)" d="m0 0h183v4l-5-2-178-1z" fill="#0A0116"/>
<path transform="translate(1123,390)" d="m0 0 9 1 4 3v5l-5 3-3 3h-7l-2-1 1-10z" fill="#0A0116"/>
<path transform="translate(1154,353)" d="m0 0h5l-5 4-5 3-1 4 4 2 1 3-2 4-9 1-1 4-9 5-4-2 1-11 2 4v5l8-1 3-13 5-8z" fill="#0E0327"/>
<path transform="translate(845,385)" d="m0 0 6 1 4 4v2h-7l-8 6-2 5-5-1-1-2v-7l5-5 6-2z" fill="#190641"/>
<path transform="translate(738,721)" d="m0 0h12l7 2 1 3 6 1v1h-38l2-3z" fill="#07000C"/>
<path transform="translate(1303,524)" d="m0 0 7 1 5 3-1 5-7 3h-5l-5-3-5-2 1-5z" fill="#190641"/>
<path transform="translate(1050,385)" d="m0 0 9 3v3l-7 2-8 7-2 3-4-2-2-3v-5l7-5z" fill="#190641"/>
<path transform="translate(1281,669)" d="m0 0v3l2 5-1 5-4 6-1 7-5 5-2 1 2-5 3-2 1-4-5-2-3-4 2-5 5-6z" fill="#090015"/>
<path transform="translate(1042,700)" d="m0 0h10l4 2v2l-3 1v7l3 7-1 7-2 2-3-1h2l-1-2v-8l-4-8-2-3-9 1z" fill="#07000C"/>
<path transform="translate(1410,465)" d="m0 0h3l-1 6-1 3 3 5v2h-15l-4 3h-3v-5l6-5 9-5z" fill="#090015"/>
<path transform="translate(1385,690)" d="m0 0h2l-1 7-2 5h-2v3l-5 5-4 1-2-5v-6l3-3 5-4z" fill="#1B0A3F"/>
<path transform="translate(1135,671)" d="m0 0 4 1 6 4v2l5 2 3 3-2 6h-6l-9-7z" fill="#1A0742"/>
<path transform="translate(1378,509)" d="m0 0h7l5 1h5l-1 9-4 2-8-1-1-2 1-4-8 3h-2l1-5h2v-2z" fill="#190641"/>
<path transform="translate(1186,686)" d="m0 0 1 3-1 2 4-1 3 1 2 9 1 2-3 5h-5l-3-5-1-5h-3l-1 7-2-3 2-6z" fill="#0D0226"/>
<path transform="translate(805,621)" d="m0 0h5l-3 6-9 10-4 5-9 4-4 2h-3v9l-4 5-10 7h-5v-3l4 1 5-5 4-2 1-5 2-3 1-5 12-5 8-6 6-8z" fill="#0E0327"/>
<path transform="translate(1497,410)" d="m0 0 1 3-4 4h-2l3 5 2 1v2l6 2 2 2-1 4-7 1-4-4-7 1-1 1h-5l5-4 3-5 3-7 5-4z" fill="#0D0226"/>
<path transform="translate(1184,596)" d="m0 0h9l2 2-1 7-2 4h-8v-2l-5-2v-5z" fill="#0D0224"/>
<path transform="translate(1232,500)" d="m0 0h13l3 3-2 4-6 4-5 1-6-4v-6z" fill="#07000C"/>
<path transform="translate(387,578)" d="m0 0 7 3 5 5 4 7-1 2-11-1-4-1z" fill="#0E0327"/>
<path transform="translate(1341,710)" d="m0 0 2 2v4l-7 2h-12l-7 1-3 2h-11l-7-2-4 2-2 3-4-3v-2l6-3 8 1h9l12-2h11l9-1z" fill="#0D0225"/>
<path transform="translate(762,344)" d="m0 0h13v1l-13 1-1 2v-2h-7v5l-3 1h-7l-2-1v-3l-6 3h-2l-2 6h-3l1-4 2-2 1-4-3-2z" fill="#3D3C3D"/>
<path transform="translate(782,593)" d="m0 0 4 1 1 3 7 1 1 4-3 3h-7v-5l-5 2-3 3-4-1-2-3 1-4z" fill="#0D0226"/>
<path transform="translate(1652,541)" d="m0 0h3l2 13-5 4-4 11-5 1-1-4 1-4-7-2 1-2 10-5 6 1z" fill="#0E0327"/>
<path transform="translate(932,674)" d="m0 0 7 1 5 3 2 4-1 6-1 1-9-1-4-4z" fill="#190640"/>
<path transform="translate(824,500)" d="m0 0h11l3 2-1 6-5 3h-9l-3-3 1-6z" fill="#07000C"/>
<path transform="translate(1101,421)" d="m0 0 1 4-5 5-6 5-12 5h-13l-2-2 1-4 3 3 6 1 10-3 3-3 1-7 3-2 8-1z" fill="#090015"/>
<path transform="translate(958,628)" d="m0 0 1 2-10 2-1 4-7 10-9 3-9-1-1-1 1-9 4 1 1 4 4 1 4-2 1-2 7-3 1-2h2l1-4 3-2z" fill="#090015"/>
<path transform="translate(1371,540)" d="m0 0 4 2 2 2 5-1 2-1-2 4-6 9-5-1-3-2v-2h-2v-2l-7 2-2-2 6-2 6-4z" fill="#0A0116"/>
<path transform="translate(1073,471)" d="m0 0h8l8 4 1 4-8 4-3 1-6-4-1-1v-6z" fill="#1A0742"/>
<path transform="translate(1029,499)" d="m0 0h9l4 3-1 5-7 4-5-1-5-4 1-5z" fill="#07000C"/>
<path transform="translate(588,397)" d="m0 0 8 2v5l-4 4-5-1-12-3-1-5z" fill="#190641"/>
<path transform="translate(1436,466)" d="m0 0h6v2h3l-1 9-1 5-2-1 2-10v-2l-7 1-4 6-4 1-2 5h-2l1 5 7-1-4 2-7 1-1-5 2-5 2-7 8-3h3z" fill="#090116"/>
<path transform="translate(1221,439)" d="m0 0 2 1-5 5v5l-7 5-7-1-9-3-6-5v-6h1v5l6 2 4 2h3l2-5 6 3 4-1z" fill="#090013"/>
<path transform="translate(1409,613)" d="m0 0 1 4-1 33-1 53h-1l-1-26-2-7 2-16 1-31z" fill="#0A0116"/>
<path transform="translate(1314,534)" d="m0 0v3l-5 7v8l-3 8h-2v3h-2l1-8-4-6v-7l2-2 8-1z" fill="#090015"/>
<path transform="translate(842,716)" d="m0 0 4 1 4 4v2h-2l-1 3-6 2-11-1 2-5 6-5z" fill="#353435"/>
<path transform="translate(868,471)" d="m0 0h8l6 4 2 4-5 2-2 4-5-1-5-6z" fill="#1A0742"/>
<path transform="translate(1214,476)" d="m0 0v3l-6 2 1 8 1 2h15l3-4 4 1-6 5h-19l-9-8v-5l9-3z" fill="#07000C"/>
<path transform="translate(1016,439)" d="m0 0 2 1-4 4-1 7-7 3h-8l-7-4-3-4 6 2h7l-3-4v-3l4 1 1 5 8-1 2-4z" fill="#090013"/>
<path transform="translate(1440,515)" d="m0 0 7 1 2 3-1 6-5 5-5 1-2-3v-9z" fill="#0D0224"/>
<path transform="translate(639,462)" d="m0 0 9 1 8 2 5 3 4 2-5 3-1-2-9-1-12 5-7 3-5 2h-3l4-4 7-2 7-4 3-4v-2l-5-1z" fill="#0D0225"/>
<path transform="translate(637,386)" d="m0 0h6l2 4 7-1-1 3h-8l-6 4-5 5-3-1v-9z" fill="#190641"/>
<path transform="translate(727,359)" d="m0 0 8 3-2 4-2 1-3 9-3 2v-2l-4-2 1-10z" fill="#1A0742"/>
<path transform="translate(1528,527)" d="m0 0h5l-4 2h-3l1 4h-3l-2 5-1 4 2 2v8l-5 5-2-1 4-3-1-7-3-2v-5h2l-1-3h-3l-2 4-5 4 2-4 4-5 10-6z" fill="#0D0225"/>
<path transform="translate(889,343)" d="m0 0 43 1 8 1-1 4 6-1 2 2-6 5-3-2 1-3-3 1 1-5-38 1-11-1z" fill="#1E1924"/>
<path transform="translate(1234,346)" d="m0 0 6 1-3 6-3 9-5 3-3 1-1-1 1-11 2-3 5-1z" fill="#0A0116"/>
<path transform="translate(997,690)" d="m0 0h8l-3 1v6l-4 10-2-1 3-8-10 7-3 1-5-2v-4l9-2 3-3 3-2z" fill="#0D0226"/>
<path transform="translate(552,558)" d="m0 0h4v11l-6 10h-2v6l-1 1-9 1 1-2h7l-1-3-7-2v-1l6-1 5-9 2-3z" fill="#0D0224"/>
<path transform="translate(816,346)" d="m0 0h22v1l-12 1h-9l-11 11h-2v2l-4-2 1-9 3-2z" fill="#090114"/>
<path transform="translate(1064,631)" d="m0 0 4 1 1 3 7 1 4 2-1 5-3 1-3-1-5 1-3-3-1-2-3-1 2-6z" fill="#1A0742"/>
<path transform="translate(496,569)" d="m0 0 2 1v3h4v-2l6-1 2 1-1 5-6 3-13 2-1-2 5-9z" fill="#020003"/>
<path transform="translate(1124,449)" d="m0 0 2 1-6 7-5 3-5 5-8-1-1-1v-12l3 4 4 1h7l5-5z" fill="#07000C"/>
<path transform="translate(1011,578)" d="m0 0 1 4-2 4h-5l-1 5h-12l-6-3-1-2h6l3-2 7-2 4-1 4 2z" fill="#0A0116"/>
<path transform="translate(1078,411)" d="m0 0h14l5 2-4 2-2 6h-3l-1-6-7 2-7 6h-2l1-5z" fill="#18063F"/>
<path transform="translate(398,520)" d="m0 0 6 1 5 3v5l-9 1h-9l-1-2 2-5z" fill="#1A0741"/>
<path transform="translate(681,474)" d="m0 0 3 1 3 9 1 8-8 1-4-3 1-4 1-3-2 1h-6l5-4 8 2z" fill="#10032A"/>
<path transform="translate(718,447)" d="m0 0v3l-12 7-4 2-1 4-2 2h-8l-2-1v-6l2-7 2 4 7 2 17-9z" fill="#07000D"/>
<path transform="translate(285,347)" d="m0 0h59v1l-48 1-9 1h-20l-4 4-4-2v5h-1v-9z" fill="#0A0116"/>
<path transform="translate(620,554)" d="m0 0 5 1 2 6h3l4 6v5h-3v-2l-5 1v2l-4-1 2-4 2-5-4 1-2-2z" fill="#1A0742"/>
<path transform="translate(1466,472)" d="m0 0h2l-2 10-5 6v5l-3 3-5-1v-4l4-8 4-6z" fill="#190641"/>
<path transform="translate(1532,558)" d="m0 0 4 2 4 4-1 6 3-1 5 5 2 5h-4l-5-1-2-7h-5l-2 1z" fill="#020003"/>
<path transform="translate(1395,397)" d="m0 0 4 2 17-1 2 1-1 4-5 3-10-1-2 1-5-2-1-6z" fill="#190641"/>
<path transform="translate(943,357)" d="m0 0 2 1-3 3-1 3 4 1 3 3-1 6-4-1-3-5v-2l-4 2-2 7-1 8-1 1h-6l-1-6v-8l2 4 1 7 3 1 1-8 3-8 3-2v-4z" fill="#0D0226"/>
<path transform="translate(1054,705)" d="m0 0 6 1 6 7 5 2 1 8-6-4-8-3-5-6z" fill="#190641"/>
<path transform="translate(740,615)" d="m0 0h5v2l3 1-2 9-4 1-6-2v-2h-2v-5z" fill="#201041"/>
<path transform="translate(985,596)" d="m0 0 4 1 1 5-3 7-3 1-7-4-1-5 2-3z" fill="#0E0327"/>
<path transform="translate(1175,528)" d="m0 0h2l1 4-6 7-7 4h-9l-2 6-1 5v5l-2-3-4-5 1-4 5-8 12 1 7-4 3-3z" fill="#080010"/>
<path transform="translate(1280,471)" d="m0 0 6 1 6 5-1 3-6 5-5-3-3-4 1-6z" fill="#1A0742"/>
<path transform="translate(964,526)" d="m0 0 7 2 1 4-5 6-7 3h-6l-4-2-4 1 2-4 4-3 4 1 1 4 5-3 4-5z" fill="#0D0226"/>
<path transform="translate(1306,418)" d="m0 0 2 4-3 7-7 3-4 2v2l-7 2 4-4h2l-1-5-2-4 6-2h7l2-1z" fill="#090013"/>
<path transform="translate(908,1750)" d="m0 0 43 1 18 1v1h-72l1-2z" fill="#DADADA"/>
<path transform="translate(1402,406)" d="m0 0h6l4 4-6 1-2-1h-7l-5 5-3 1-7 1-3-2-7 1 2-5 6-1 6 2h5l5-4z" fill="#0A0116"/>
<path transform="translate(1135,345)" d="m0 0h40l-2 1-1 3h-3l-1-2-4-1v3l-7 3h-2v-2h-8l-5-2v-2h-7z" fill="#3E3D3E"/>
<path transform="translate(563,398)" d="m0 0 9 1v4l-5 5-4 2-4-1-3-4v-3l7-2z" fill="#190641"/>
<path transform="translate(1159,859)" d="m0 0h27l-3 2-4 2h-2l-7 3-6 1-4-1z" fill="#A8AAA9"/>
<path transform="translate(1536,730)" d="m0 0h5l2 2 6 2-1 4-5 1v2h-2l-1 4-3 2-1-3z" fill="#A8AAA9"/>
<path transform="translate(1447,517)" d="m0 0 6 2 11 1 1 4-4 3-8 1-1-1h-5l-3 2 2-4h2v-6z" fill="#07000D"/>
<path transform="translate(517,572)" d="m0 0 6 1 2 13-1 2-6-2-4-4 1-7z" fill="#020003"/>
<path transform="translate(999,346)" d="m0 0h23l-11 11-5 1-2-9 5-1h-9z" fill="#1D1728"/>
<path transform="translate(1109,535)" d="m0 0v3l-3 1v2l-3 1 1 7 1 2v6l-3 6-2-1 1-2v-8l-3-4-3 3h-5l-1-5 1-1h8l2-4z" fill="#07000C"/>
<path transform="translate(1255,531)" d="m0 0 4 2 2 6-3 5h-6l-4-4 1-5z" fill="#07000C"/>
<path transform="translate(1207,345)" d="m0 0 18 1-3 2-4 1-2 5-4 3-3-1-3-7-3-1v-2z" fill="#22153D"/>
<path transform="translate(641,1669)" d="m0 0h2l1 11v47l1 22h-2l-1-17-1-37z" fill="#DADADA"/>
<path transform="translate(845,609)" d="m0 0h13v2l9-2-2 3-5 1-9-1-10 1-12 3-9 2-7 3-3-1 10-5 7-2z" fill="#0E0327"/>
<path transform="translate(1394,441)" d="m0 0h2l3 3 5 2 7 1h4l8-5 2-1-2 4-6 4-2 5-4 1-10-6-7-5z" fill="#07000D"/>
<path transform="translate(880,410)" d="m0 0 9 2 1 3-4 7-3-1-1-5h-6l-6 4-2-1 3-5 3-3z" fill="#190640"/>
<path transform="translate(640,1747)" d="m0 0h1v5l5 2 15 2v1h-10l-4 4-4-1-1-7-44-1v-1l37-1 2-2z" fill="#0C0317"/>
<path transform="translate(1053,704)" d="m0 0 5 1-4 1 1 6 5 4 9 4 2 2 2-4 1 1v5l-6 2-6-2v2l-2-1 1-4-4-2-5-7v-7z" fill="#0D0226"/>
<path transform="translate(673,410)" d="m0 0h7l3 4-3 2-7 1-8 7-3 4-3-1 5-9 5-5z" fill="#19063F"/>
<path transform="translate(985,409)" d="m0 0 3 1-6 4-3 3-15 4-2 1 2-4 4-6 10-2z" fill="#090014"/>
<path transform="translate(1525,396)" d="m0 0h6l3 2v4l-8 2h-8l-3-1v-4z" fill="#1A0742"/>
<path transform="translate(1286,561)" d="m0 0 6 1 5 3 3 1-5 2-26-1-1-5 2 2h7z" fill="#0A0116"/>
<path transform="translate(653,1627)" d="m0 0h48l13 1v1l-7 1-56-1z" fill="#9C9F9E"/>
<path transform="translate(1408,709)" d="m0 0h1l1 12 1 5-4 3-64-1v-1l63-1-3-2 1-3h4z" fill="#0A0116"/>
<path transform="translate(1071,646)" d="m0 0h6l-1 8-6 5h-8l-6-7h3l2 2h5l3-1z" fill="#0A0116"/>
<path transform="translate(916,451)" d="m0 0h2v2l-6 5-4 4-2 3-7-1-2-2v-8l5 2h7z" fill="#07000D"/>
<path transform="translate(1411,464)" d="m0 0h3l-1 12 1 1 8 1 1-2-1 7-1 5 5 1v1h-6l-3-2v-2l-10-5 3-1 4 1-4-7 3-9z" fill="#07000D"/>
<path transform="translate(1049,530)" d="m0 0h4l2 5-1 7-5 1-5-4-1-4z" fill="#07000D"/>
<path transform="translate(1409,523)" d="m0 0h5l3 5v5l-4 3h-5l-2-2v-5z" fill="#0D0224"/>
<path transform="translate(1196,503)" d="m0 0 5 3 2 4 4 4-2 6-3-1v-6l-5 2h-3l-1-2 1-9z" fill="#1A0742"/>
<path transform="translate(1507,363)" d="m0 0 4 2 3 4-1 4-9 2-3-3v-6l2-2z" fill="#0E0327"/>
<path transform="translate(1256,688)" d="m0 0 5 5-1 5-6 3-5 3 1 4 7 2v1l-8 1-5-3-2-6 3-2 7-1 4-5z" fill="#0A0116"/>
<path transform="translate(899,678)" d="m0 0 5 1-1 2-8 1-1 5-1 2-6 1-2 8-4-1-2-3-6 1v-6l2-2 2 4h6l1-3 4-1 4 1 1-6z" fill="#0D0226"/>
<path transform="translate(894,685)" d="m0 0 2 4 3 4-1 17-2 3-7 3h-6l-4-5 3-1 1 2 6 1 6-5h2l-1-13-5-2 1-4z" fill="#07000D"/>
<path transform="translate(685,554)" d="m0 0h4l1 4-4 5-1 3-6 1-4-5 4-3h2l1-4z" fill="#10032C"/>
<path transform="translate(809,442)" d="m0 0 1 2-1 2h-2l-2 6-6 3-11-2v-2l-4-2-3-2 1-2 8 4h9l6-3z" fill="#090013"/>
<path transform="translate(824,349)" d="m0 0 3 1-3 11-3 3h-5v-11l7-3z" fill="#0A0116"/>
<path transform="translate(1716,347)" d="m0 0h73v5l-8-1v-2l-65-1z" fill="#0A0116"/>
<path transform="translate(700,527)" d="m0 0h1l-1 7-4 4-14 1-4 5-5 10-8 8-2 4-2-1 3-5 8-9 2-6 6-8 3-2h7v2l7-3z" fill="#0C0220"/>
<path transform="translate(931,494)" d="m0 0h4l-1 5-6 5-7-1-2-5 2-3 6 1z" fill="#1A0742"/>
<path transform="translate(651,460)" d="m0 0 9 3 6 4 14 4 1 3-14-2-2-1v-2l-5-1-6-3-9-2v-1z" fill="#090013"/>
<path transform="translate(1505,355)" d="m0 0 1 2 9-1 2 2v4l-2 1-1 6-5-5h-6l1-8z" fill="#090015"/>
<path transform="translate(1348,606)" d="m0 0h9l1 5-2 4-3 2h-5l-1-1v-9z" fill="#150538"/>
<path transform="translate(781,409)" d="m0 0 3 1-6 5-8 1v2l-11 4h-2v-7l1-4h3v2l9 1 7-1z" fill="#090013"/>
<path transform="translate(1222,347)" d="m0 0 3 1h-2l-2 5-3 5v5l-2 2-5-1-2-4 1-4 5-2 3-5z" fill="#080010"/>
<path transform="translate(952,345)" d="m0 0h20l-5 4-3-2-5-1-1 4-2 1h-9v-2h-8l1-3 3 1z" fill="#383739"/>
<path transform="translate(714,391)" d="m0 0 4 2v11l-3 1-7-2 3-10z" fill="#0D0224"/>
<path transform="translate(1472,351)" d="m0 0h3l-2 7-2 1-3 6-4 9h-3v-8l6-8h2l1-5z" fill="#1D0D3E"/>
<path transform="translate(1163,620)" d="m0 0h1v7l-5 1-2 5-6 10-5 4-5 3h-5l-6-5 1-2 2 2 13-1 5-5 5-11 6-2z" fill="#07000D"/>
<path transform="translate(1252,614)" d="m0 0h21v2l-3 1h-17l-3 2-17 1 1 5-3-2-1-5 1-1 19-1z" fill="#080011"/>
<path transform="translate(783,599)" d="m0 0 3 1v4h8l-3 3-5 2-11-1-4-5 1-2 2 3 4-1z" fill="#090013"/>
<path transform="translate(393,596)" d="m0 0 25 2h16l2 2h-42l-3-1v-2z" fill="#07000C"/>
<path transform="translate(958,349)" d="m0 0v3l-1 1h-10l-2 4-4 3h-3v-2l-4 1-1-5 4-4h2l1 4 5-3 2-1h9z" fill="#211241"/>
<path transform="translate(453,537)" d="m0 0 3 3 10-1-3 4-16 3h-4v-8l9 2z" fill="#0E0327"/>
<path transform="translate(521,491)" d="m0 0 5 1 1 4-4 7-5 2-2-5v-5z" fill="#190641"/>
<path transform="translate(880,467)" d="m0 0h6l3 5 4 5v8l-2 3-2-10-3-3v-2l-4-1-11-3v-1z" fill="#08000F"/>
<path transform="translate(1515,438)" d="m0 0 4 1 4 6 5 1h6l2 10v17h-1l-2-16-1-5-3-2-8-2-3-5v-2l-3-1z" fill="#0C0317"/>
<path transform="translate(1187,595)" d="m0 0h7l4 3 5 1 1 5-5 3-6 3h-7v-1l6-1 2-5v-5l-7-2z" fill="#0A0116"/>
<path transform="translate(505,563)" d="m0 0h4v2h-2l-1 3-6 3-4-1-2 1-2 3-2-6-1-2 6-2z" fill="#090014"/>
<path transform="translate(1129,541)" d="m0 0h1l1 9 3 3h9l2 1-1 4-6 2-1 5h-2l-1-8-4-2-1-2z" fill="#080010"/>
<path transform="translate(896,422)" d="m0 0v3l-3 4-7 4-3 1v2l-9 4h-15l-1-1v-9h1l1 8h11l10-4 4-5 3-3z" fill="#090015"/>
<path transform="translate(499,489)" d="m0 0 3 1-7 14h-3v-2h-2l-1-5 8-7z" fill="#2A1C47"/>
<path transform="translate(868,350)" d="m0 0 4 1 5-1h4l-1 5v10l-4-1-3-7v-4l-5-1z" fill="#10032B"/>
<path transform="translate(515,528)" d="m0 0 4 1 8 3-1 4-4 1v3h-4l-3-6z" fill="#0E0327"/>
<path transform="translate(414,505)" d="m0 0h6v1h11l3-1h13l8 1v1l-23 1-8 1h-11l-6-2v-1z" fill="#1A0742"/>
<path transform="translate(892,698)" d="m0 0 3 1 1 2v7l-3 3-7 1v-5z" fill="#0E0327"/>
<path transform="translate(680,542)" d="m0 0 4 2v8l-5 5-4-2 1-9z" fill="#07000C"/>
<path transform="translate(1557,531)" d="m0 0 4 1-8 2-12 2-3 6-3-1-5-5 5-1v-2l2-1h15z" fill="#0D0225"/>
<path transform="translate(1501,500)" d="m0 0 3 1-1 2 5 1v5l-5 3-6 1-4-2 7-2-1-7z" fill="#0A0116"/>
<path transform="translate(727,493)" d="m0 0 4 1-1 5-8 6-4-1-2-3 1-4h6z" fill="#1A0742"/>
<path transform="translate(1121,667)" d="m0 0h6v5l-6 5-3-1v-2l-4 1h-3l3-3v-3h5z" fill="#0C0222"/>
<path transform="translate(1228,626)" d="m0 0 4 3 3 9h2l2-2v4l-5 2-5-1-2-2 1-8 1-3-2-1z" fill="#07000C"/>
<path transform="translate(591,468)" d="m0 0 5 1 2 4-1 5 7 2 2-4 5-6 2 1-8 10h-2l-1 3-4-1-5-5 1-8h-5z" fill="#080012"/>
<path transform="translate(999,347)" d="m0 0h14l-1 2h-8l2 9 5-1 3 6-1 3-6-2-5-12-3-3z" fill="#07000D"/>
<path transform="translate(773,663)" d="m0 0h7v4l5 1-5 4-5 1-2-5-6-1 2-3z" fill="#07000C"/>
<path transform="translate(1127,662)" d="m0 0 4 2 2 3 7 4 1 2-6-2 2 12h-2l-2-10-4-2h-2v-4h-4v-2z" fill="#090015"/>
<path transform="translate(839,651)" d="m0 0 4 2-3 7-7 1-3-1 1-5z" fill="#1A0742"/>
<path transform="translate(1233,348)" d="m0 0v3h-5l-2 9v5l7-3 2-1-1 4-5 3h-6l-3-3 1-4 3-3 1-8 7-1z" fill="#07000C"/>
<path transform="translate(920,667)" d="m0 0 6 1 6 2-2 3v6l-7-4h-13v-1h9v-2l2-1z" fill="#0A0119"/>
<path transform="translate(1606,518)" d="m0 0h9v4l-4 5h-6l-1-1v-6z" fill="#211537"/>
<path transform="translate(548,407)" d="m0 0h4l-1 5-3 8-6-2v-6z" fill="#07000D"/>
<path transform="translate(1456,438)" d="m0 0 3 1-2 4-2 8h-5l-2-5 1-5z" fill="#16053A"/>
<path transform="translate(1400,473)" d="m0 0h6l-1 4-10 7h-3v-5l6-5z" fill="#0D0225"/>
<path transform="translate(1048,462)" d="m0 0 14 1 4 1 1 4-11 4-3 3-6 1 3-3 7-5h2v-3l-11-2z" fill="#0D0226"/>
<path transform="translate(587,396)" d="m0 0 7 1 1 2-7-1-14 1 1 5 3 1-10 4-3-1 5-2 2-6-6-2v-1z" fill="#0C0222"/>
<path transform="translate(1421,348)" d="m0 0h13l-1 4-6 4h-3l-6-6z" fill="#1B0941"/>
<path transform="translate(1186,645)" d="m0 0 5 1-1 6-7 4-5-1 3-5z" fill="#1A0742"/>
<path transform="translate(910,436)" d="m0 0 11 2 2 1v2l-8-1h-2l-1 5-1 1h-9v-2l4-1 2-5z" fill="#090014"/>
<path transform="translate(548,402)" d="m0 0h5l-6 7-4 3-1 5-5-4 3-6 4-4z" fill="#0E0328"/>
<path transform="translate(721,364)" d="m0 0h1v10l4 3 3-2-1 9-4 1-4-3v-14z" fill="#0E0326"/>
<path transform="translate(1166,654)" d="m0 0h1l2 6 4 5 4-1-2 4-4 4-4-2-1-2z" fill="#07000C"/>
<path transform="translate(1443,586)" d="m0 0 6 2 2 4h-7l-9 4-3-1 5-5z" fill="#0D0226"/>
<path transform="translate(833,599)" d="m0 0h9v1l-9 2-12 6-2 2-7 2-5 2v2l-4 2 2-4 5-5 11-4z" fill="#0D0222"/>
<path transform="translate(1433,470)" d="m0 0 2 1-3 5-4 1-2 5h-2l1 5 7-1-4 2-7 1-1-5 3-3 3-7 6-3z" fill="#0E0327"/>
<path transform="translate(918,393)" d="m0 0 5 1v7l-1 3h-6l-2-2 1-6z" fill="#0D0224"/>
<path transform="translate(823,347)" d="m0 0h8l-2 1v6l-3 4-3 7-4 2-5-1-1-3 2-9h1v10l6-2 4-10v-2h-3z" fill="#07000C"/>
<path transform="translate(1244,599)" d="m0 0 32 1 5 5-1 3-4-4-3-2h-19l-9-1-7 3-4-1z" fill="#0D0225"/>
<path transform="translate(1028,501)" d="m0 0h8l3 3-5 5h-5l-3-4z" fill="#0A0116"/>
<path transform="translate(787,655)" d="m0 0 5 1 1 4-4 5-6 1-1-5z" fill="#0E0327"/>
<path transform="translate(1178,642)" d="m0 0 13 1v1l-8 2-4 5h-10v-2l6-2z" fill="#08000F"/>
<path transform="translate(588,514)" d="m0 0 9 1 4 1v4l-7 1-7-1z" fill="#1A0742"/>
<path transform="translate(740,348)" d="m0 0h2v3h12v2l-12 1-4 3h-6l2-6z" fill="#160735"/>
<path transform="translate(758,707)" d="m0 0h5l3 2v5l-7 1h-4l-2-4z" fill="#1A0742"/>
<path transform="translate(1335,541)" d="m0 0 5 2 1 4-2 5-2 2-5-1 2-11z" fill="#1A0742"/>
<path transform="translate(1027,616)" d="m0 0 7 2h9l4-1-3 3-2 1-13 1-3 8-1-4v-9z" fill="#080011"/>
<path transform="translate(988,596)" d="m0 0 5 2 6 3-1 4-7 2-3 3-3-1 2-1 2-6z" fill="#0A0116"/>
<path transform="translate(1524,533)" d="m0 0h4v2h2v2l2 1h-5l-3 13h-1l-1-7-2-3z" fill="#0A0116"/>
<path transform="translate(825,501)" d="m0 0 9 1 1 4-8 4-4-2v-6z" fill="#0A0116"/>
<path transform="translate(1023,353)" d="m0 0 4 1 3 5v3l-5 2h-4l1-10z" fill="#0E0327"/>
<path transform="translate(785,591)" d="m0 0 6 1 5 4 1 4-2 4-1-2v-3l-8-1-1-4-8 1 3-3z" fill="#0A0116"/>
<path transform="translate(786,501)" d="m0 0 5 1 3 4 3 1v2l4 2 5 3 2 1-1 5-2-4-6-1-1-5-5-2-3-4-5 1-2 4h-2l1-5z" fill="#0D0223"/>
<path transform="translate(938,366)" d="m0 0h2l4 7 3 1 1-6h1v9l-1 2-4-1-1-4-8-1v-5z" fill="#0A0116"/>
<path transform="translate(961,654)" d="m0 0h1l3 14h5v2h-3v2l-4 1-4-2v-7z" fill="#090014"/>
<path transform="translate(790,513)" d="m0 0 2 1v5l4 1 3-4 2 4h5l-1 2-5 1h-9v-2h-2v-3l-5-2 1-2z" fill="#0D0223"/>
<path transform="translate(577,443)" d="m0 0 5 3h6l1-1 13-1-1 2-5 3-5 2-11-3-3-3z" fill="#080010"/>
<path transform="translate(1e3 427)" d="m0 0 3 1 4 5-1 4h-4l-7-4z" fill="#1A0742"/>
<path transform="translate(1482,367)" d="m0 0h1l1 9-4 1-4-4h-3v5l-1-3-4-1 1-4h11z" fill="#0A0116"/>
<path transform="translate(868,352)" d="m0 0 5 1 4 11 2 2-9-1-2-7z" fill="#08000F"/>
<path transform="translate(1035,345)" d="m0 0h55v1h-7v3l-4 1-2-3-42-1z" fill="#353435"/>
<path transform="translate(1379,699)" d="m0 0h4l-1 6-5 5-4 1-1-1v-6l5-2z" fill="#403E42"/>
<path transform="translate(979,646)" d="m0 0 6 1 1 5-6 3-5 1-1-4 4-2z" fill="#1A0742"/>
<path transform="translate(1035,460)" d="m0 0h12l1 2-21 2-11 11h-2l2-4 11-10z" fill="#0C0221"/>
<path transform="translate(1285,411)" d="m0 0h11v3l-1 1-10 1-9 6 2-4z" fill="#1A0742"/>
<path transform="translate(529,369)" d="m0 0 2 1-2 4 1 10 2 2-5-1-4-2 1-7 3-6z" fill="#1A0742"/>
<path transform="translate(1281,347)" d="m0 0 6 1 2 9v5l-4-2-4-8-1-4z" fill="#1A0742"/>
<path transform="translate(709,713)" d="m0 0h5l1 4h-7v5h2v3l-7 1 1-5 2-5z" fill="#343334"/>
<path transform="translate(1137,494)" d="m0 0h2l1 4-7 6h-5l-2-4 9-3v-2z" fill="#1A0742"/>
<path transform="translate(1534,486)" d="m0 0h5v2h2l-1 4-7 4-4-2 1-4z" fill="#0A0116"/>
<path transform="translate(1186,411)" d="m0 0 2 1-7 8-5 3-8-1-3 5-1-2 1-4 3-2 9 1 2-5 5-2z" fill="#07000C"/>
<path transform="translate(1384,345)" d="m0 0h17l-4 1v2h2v2l2 1-8 2-4-4v-2l-5-1z" fill="#0A0116"/>
<path transform="translate(1145,1747)" d="m0 0 6 1v4h-19v-2l6-2z" fill="#A8AAA9"/>
<path transform="translate(909,668)" d="m0 0h12v4h-2v2h-9v2l-4 3-2-1 7-6v-2z" fill="#0C0222"/>
<path transform="translate(1358,643)" d="m0 0 2 4v2l6-1 1 2-2 4-3 1-2-1-1 3h-7l1-2 5-1z" fill="#0D0225"/>
<path transform="translate(1234,501)" d="m0 0 8 1 1 4-7 4-4-2v-5z" fill="#0A0116"/>
<path transform="translate(508,496)" d="m0 0h6l1 1v10l2 1-7-1-2-10z" fill="#0A0116"/>
<path transform="translate(1305,451)" d="m0 0 2 4 3 3 2 6 4 1-4 3-5-1-2-3z" fill="#07000C"/>
<path transform="translate(1124,449)" d="m0 0 2 1-6 7-11 4-5-2-2-5 6 2h7l5-5z" fill="#0A0116"/>
<path transform="translate(1535,346)" d="m0 0 2 2v24h-1v-9h-5l1-5 2-7z" fill="#0C0417"/>
<path transform="translate(1029,346)" d="m0 0h16v1l-10 1-2 1-2 13-2-3-3-5h-4v-2l7-2z" fill="#0D0515"/>
<path transform="translate(746,1629)" d="m0 0h18v8l-5-2-3-3-10-1z" fill="#949796"/>
<path transform="translate(549,586)" d="m0 0 4 4 2 5 5 4-9-1h-4l-1-4z" fill="#07000C"/>
<path transform="translate(623,567)" d="m0 0 2 1-2 4 3 1v-2l5-1v2h3v-5l2 1-1 5-3 1v2h-9l-2-2v-5z" fill="#0D0226"/>
<path transform="translate(1408,561)" d="m0 0v3l-5 3-10 1-1 4-4 2h-3l-3 6-2-1 4-6 8-7 12-2z" fill="#0C0222"/>
<path transform="translate(735,557)" d="m0 0h5v5l-2 2-7 1-2-1 1-5z" fill="#1A0742"/>
<path transform="translate(1334,539)" d="m0 0 4 1 4 2v8h-2v-6l-5-2-2 9-1 2h5l3-2-2 4-5 2-2-2 1-14z" fill="#0C0221"/>
<path transform="translate(411,514)" d="m0 0 4 1 2 3-1 5h-6v6h-1l-1-5-2-2h3l1-7z" fill="#0E0327"/>
<path transform="translate(989,502)" d="m0 0 7 1 5 5 9 6-3 1-6-3v-2l-4-1-5-4h-4v5l-3-4v-2z" fill="#0E0327"/>
<path transform="translate(764,349)" d="m0 0 1 4 3 4 4 2-1 3v-2h-3v2l-4 1-2-2-1-8z" fill="#07000F"/>
<path transform="translate(776,652)" d="m0 0h2l-1 7-11 9-7 1v-3l4 1 5-5 4-2 1-5z" fill="#0D0226"/>
<path transform="translate(1150,542)" d="m0 0v3l-2 3 1 4 3 4-1 5-6 4-6 1-3-3 2-4h1v5l9-3 2-4-2-3-3-1v-5z" fill="#0E0327"/>
<path transform="translate(516,412)" d="m0 0 3 1-1 6-5 6h-2v-8l1-3z" fill="#020003"/>
<path transform="translate(1120,394)" d="m0 0 5 1 3 6v2l-9 1z" fill="#0D0225"/>
<path transform="translate(1453,389)" d="m0 0h3l3 7-1 5-4 1-2-2z" fill="#0D0226"/>
<path transform="translate(808,349)" d="m0 0 3 1-2 4-6 5-3-2 1-7z" fill="#1A0742"/>
<path transform="translate(950,538)" d="m0 0 4 2h9v2h-13l-2 2-1 12-4-5 1-5 4-7z" fill="#080011"/>
<path transform="translate(1307,665)" d="m0 0 5 2-1 7-2 2h-3l-2-3 1-6z" fill="#120431"/>
<path transform="translate(1481,567)" d="m0 0h3l-1 5-3 6-5-2v-7z" fill="#190640"/>
<path transform="translate(1075,564)" d="m0 0h11l9 1-3 2-10 1-17-1v-1l9-1z" fill="#07000C"/>
<path transform="translate(1151,358)" d="m0 0 2 1-1 3 4 7-5 6-7 1-2 1v-3l9-1 1-5-4-4 1-5z" fill="#0A0116"/>
<path transform="translate(1327,700)" d="m0 0 6 2v2l3 1-5 1-3-2h-5l-1 1h-8l-7-1v-1h13v-2z" fill="#0B011C"/>
<path transform="translate(1214,476)" d="m0 0v3l-6 2 1 8 1 3-4-2-5-5 1-4 6-3z" fill="#0A0116"/>
<path transform="translate(1228,352)" d="m0 0 5 1 1 5-1 3-5 1-2-3v-5z" fill="#0E0327"/>
<path transform="translate(858,346)" d="m0 0 13 1v2l7-1v-2h6l-2 2-1 4-4-1-6 1-5-2-8-3z" fill="#0A0117"/>
<path transform="translate(604,561)" d="m0 0h4l1 6-5 5-4-2 2-6z" fill="#07000C"/>
<path transform="translate(941,553)" d="m0 0h2v3l3 1-2 5-4 2h-5l-1-3 1-2 5-1z" fill="#190641"/>
<path transform="translate(1338,471)" d="m0 0h16l5 3 1 5-4 4-2-1 2-4-2-4-2-1h-13z" fill="#0C0221"/>
<path transform="translate(383,1367)" d="m0 0 5 2-1 49h-1l-1-49h-2z" fill="#0C0317"/>
<path transform="translate(1152,690)" d="m0 0 5 1 3 4v4l-5-2-6-1 1-5z" fill="#190641"/>
<path transform="translate(1158,675)" d="m0 0 5 1v9l-4 4-1 4-2-3 1-4h3v-7h-10v-1l7-2z" fill="#07000D"/>
<path transform="translate(620,554)" d="m0 0 5 1 2 6 3 1-4 3v-2l-4 1-2-2z" fill="#0D0225"/>
<path transform="translate(1353,557)" d="m0 0h5l1 2-7 7h-4l1-6z" fill="#0E0327"/>
<path transform="translate(1314,534)" d="m0 0v3l-5 7v8l-3 8h-1v-14l-1-2 2-3h3l2-4z" fill="#07000D"/>
<path transform="translate(1182,393)" d="m0 0 13 1 11 1 1 2h-8l-4 1v-2h-15l-4 3h-2v-2z" fill="#0D0223"/>
<path transform="translate(715,389)" d="m0 0 6 1 2 4-1 4-3 5h-1l-1-10h-4v-3z" fill="#0A0116"/>
<path transform="translate(854,345)" d="m0 0h34v1h-10v2l-7 1v-2l-17-1z" fill="#353435"/>
<path transform="translate(386,731)" d="m0 0 8 1 2 3-3 3-6 1-2-7z" fill="#FDFDFD"/>
<path transform="translate(1065,688)" d="m0 0 9 2 8 6 2 3-10-1-3-6-6-2z" fill="#0A0116"/>
<path transform="translate(798,478)" d="m0 0h6v1l-6 2 1 8 2 3-4-2-5-5v-4z" fill="#0A0116"/>
<path transform="translate(1268,434)" d="m0 0 1 3 8-1 2-1 8 4-1 1-15 1-3-2z" fill="#0A0116"/>
<path transform="translate(1079,644)" d="m0 0 2 1-3 1-1 9-5 6-3 1-10-2-2-4 1-3 4 5h8l5-4 2-9z" fill="#07000C"/>
<path transform="translate(974,642)" d="m0 0 11 1 3 2-1 3-3-3h-8l-1 5-4 1h-5v-2l5-2z" fill="#090014"/>
<path transform="translate(1573,551)" d="m0 0h6v3l-3-1-7 3-13 4-4 1 1-5h8z" fill="#0E0327"/>
<path transform="translate(640,1747)" d="m0 0h1v5h-43v-1l37-1 2-2z" fill="#0A0116"/>
<path transform="translate(1443,575)" d="m0 0h2l4 6 5 6 1 8-2-1-2-7-8-5-1-6z" fill="#07000C"/>
<path transform="translate(841,534)" d="m0 0 5 1 2 3v4l-4 1-4-2-1-6z" fill="#0A0116"/>
<path transform="translate(1463,499)" d="m0 0h3l1 7-5 2-3-1-1-4 3-3z" fill="#120430"/>
<path transform="translate(1366,667)" d="m0 0 1 2-1 8-5 1-2-8-2-2h7z" fill="#090014"/>
<path transform="translate(651,601)" d="m0 0h9l3 2v5l-4 2h-11l1-2h8l3-2v-2l-3-1-5 2-2-1z" fill="#18063F"/>
<path transform="translate(1365,348)" d="m0 0 10 1v3l-7 1-10 1-2-3h6z" fill="#1B0941"/>
<path transform="translate(1402,723)" d="m0 0 5 3v1h-46v-1l23-1h18z" fill="#07000C"/>
<path transform="translate(576,576)" d="m0 0h1l1 16-5 7h-9v-1h8l1-7 2-3z" fill="#080010"/>
<path transform="translate(706,437)" d="m0 0h10l1 2h-7l-5 6-8 1 1-3 6-4z" fill="#080011"/>
<path transform="translate(977,393)" d="m0 0 22 2 1 2-6 1h-4l-7-2h-8l-5 2 4-4z" fill="#0C0220"/>
<path transform="translate(923,639)" d="m0 0 1 4v2l5 1 9-2 5-4 2 1-4 5-9 3-9-1-1-1z" fill="#07000C"/>
<path transform="translate(1425,571)" d="m0 0m-14 1 5 1 4 1 5-2-2 4-8 1h-4-6v-2l5-2z" fill="#0E0327"/>
<path transform="translate(1284,564)" d="m0 0 16 1-1 2-6 1-24-1v-1l12-1z" fill="#07000C"/>
<path transform="translate(1568,528)" d="m0 0 2 1 2 7-1 5-4-1-3-9h4z" fill="#0D0225"/>
<path transform="translate(385,521)" d="m0 0h2l2 13-3 5-1 5h-1z" fill="#0A0116"/>
<path transform="translate(1528,395)" d="m0 0h7l1 2-2 7-7 3-9-2v-1l16-2-1-4-5-2z" fill="#0E0327"/>
<path transform="translate(1077,348)" d="m0 0 5 1 2 8v5l-4-2-2-3z" fill="#1A0742"/>
<path transform="translate(614,1628)" d="m0 0h24v9l-1-3-5-1-1-3-17-1z" fill="#090015"/>
<path transform="translate(1659,1580)" d="m0 0h1v42h-3l1-9z" fill="#06000B"/>
<path transform="translate(737,724)" d="m0 0h10l5 2v1l-20 1-2-2z" fill="#020003"/>
<path transform="translate(1082,560)" d="m0 0 6 2 7 2v1h-20l-1 1h-9v-1l8-1z" fill="#0A0116"/>
<path transform="translate(1382,359)" d="m0 0 4 2 1 4-7 3-4-1 2-4z" fill="#1A0742"/>
<path transform="translate(641,92)" d="m0 0h30v1h-23l-2 4h-2l-2 4z" fill="#0A0116"/>
<path transform="translate(795,640)" d="m0 0h2l-1 17-2 3-2-10-1-4 3-2z" fill="#07000C"/>
<path transform="translate(845,609)" d="m0 0h13v2l9-2-2 3-5 1-9-1-8 1-2-2z" fill="#0D0226"/>
<path transform="translate(448,529)" d="m0 0 4 1-1 6-1 2h-5l-1-6z" fill="#07000C"/>
<path transform="translate(1410,353)" d="m0 0h7l-1 3h-2v5l4 2-1 1h-5l-4-7h3z" fill="#090015"/>
<path transform="translate(646,1747)" d="m0 0 10 4 12 1v1h-22l-1-4z" fill="#DADADA"/>
<path transform="translate(823,658)" d="m0 0 5 1 2 2 6 1-4 3v2l-5-1-4-6z" fill="#08000F"/>
<path transform="translate(1651,590)" d="m0 0h5v3l-4 1h-15l4-3z" fill="#020003"/>
<path transform="translate(897,540)" d="m0 0h3v2h-2l2 7-1 10-2 1-1-12-1-5z" fill="#07000C"/>
<path transform="translate(1440,517)" d="m0 0h4v3l-3 2v2l2 1-1 4h-5l1-9z" fill="#1A0742"/>
<path transform="translate(1466,495)" d="m0 0 2 4 1 5-2 1-1-6-7 2-2 4-1-5-4-2 1-2 5 2z" fill="#090115"/>
<path transform="translate(650,469)" d="m0 0 9 1v3h-10l-7 2-4-1z" fill="#080011"/>
<path transform="translate(594,352)" d="m0 0 11 1-5 8-4-3z" fill="#1B0A40"/>
<path transform="translate(1375,349)" d="m0 0 4 3-1 5-5-1-1-1h-9l1-2 8-2 3 1z" fill="#0E0327"/>
<path transform="translate(1006,348)" d="m0 0 5 1 1 5-4 3-3-1-1-7z" fill="#1A0742"/>
<path transform="translate(1659,729)" d="m0 0h3v13l-2-3-5-6-1-3z" fill="#A6A8A7"/>
<path transform="translate(954,673)" d="m0 0 3 3 1 2v6h-2l-1-5h-3l-3 3-4-4 5-1z" fill="#080010"/>
<path transform="translate(700,527)" d="m0 0h1l-1 7-4 4-14 1h-3l4-4h7v2l7-3z" fill="#0E0327"/>
<path transform="translate(636,534)" d="m0 0h5l2 3v6h-3v-2l-4-2-1-4z" fill="#0D0225"/>
<path transform="translate(1564,532)" d="m0 0 2 1 2 7 5-1-1 4-6 1-3-2z" fill="#0A0116"/>
<path transform="translate(522,530)" d="m0 0h9l1 3-7 6h-2v2h-2v2l-3-1v-2h4v-3l4-2 1-3-5-1z" fill="#07000E"/>
<path transform="translate(1402,406)" d="m0 0h6l4 4-6 1-2-1h-7l-3 3v-4z" fill="#07000E"/>
<path transform="translate(816,353)" d="m0 0h7v6l-2 2h-4l-1-2z" fill="#0D0226"/>
<path transform="translate(933,345)" d="m0 0h7l-1 4 6-1 2 2-6 5-3-2 1-3-3 1 1-5z" fill="#0F0819"/>
<path transform="translate(511,1242)" d="m0 0h1l1 19 1 5v6l-3 1z" fill="#E6E7E6"/>
<path transform="translate(1059,680)" d="m0 0h8v1l-6 1 4 4-1 2-5-1h-5l-1-3z" fill="#0A0116"/>
<path transform="translate(734,665)" d="m0 0 5 3-1 5-3 3-4-5z" fill="#1A0742"/>
<path transform="translate(989,513)" d="m0 0 7 1v6l8-1 6 1-2 2h-11l-8-7z" fill="#0D0223"/>
<path transform="translate(1279,466)" d="m0 0h10l9 2 4 4 1 6-2 3-1-8-2-2-8-2-10-1z" fill="#07000C"/>
<path transform="translate(1331,448)" d="m0 0h2v2h-2l-2 4-5 4-4-1 2-3h2l1-4z" fill="#080011"/>
<path transform="translate(624,1501)" d="m0 0h12v8l-6-4-6-2z" fill="#919493"/>
<path transform="translate(1424,441)" d="m0 0v3l-9 7h-4l-10-4 3-1 7 1h4l8-5z" fill="#090014"/>
<path transform="translate(878,700)" d="m0 0h2l1 2v7h-5l-1-1v-7z" fill="#11042D"/>
<path transform="translate(982,685)" d="m0 0h1v7l5 1v2h-3l-1 2-2-2h-3l-2 5-2 2 1-5 5-8z" fill="#0D0223"/>
<path transform="translate(947,557)" d="m0 0 1 3-3 3-8 4h-5l1-7 2-1v4h5l4-1 2-4z" fill="#0D0223"/>
<path transform="translate(443,538)" d="m0 0 7 2 1 4-4 2h-4z" fill="#1A0742"/>
<path transform="translate(1032,484)" d="m0 0h2v2l-8 2-2 3-12 2v-2l9-3 7-3z" fill="#08000F"/>
<path transform="translate(593,421)" d="m0 0 5 1-2 4-2 8h-4l1-4 2-3-1-4z" fill="#1A0742"/>
<path transform="translate(1399,577)" d="m0 0 5 1-1 5-1 1h-6l-1-3z" fill="#07000C"/>
<path transform="translate(386,520)" d="m0 0 10 1-4 4-1 4 3 2h-6z" fill="#0E0326"/>
<path transform="translate(434,508)" d="m0 0h8l2 2-2 2h-10l-4-3z" fill="#07000C"/>
<path transform="translate(823,486)" d="m0 0 3 1-4 1-2 4-1 1h-18v-1l13-1 5-4z" fill="#080012"/>
<path transform="translate(561,347)" d="m0 0 3 1-2 1v10l3 3-6-1-2-3 1-8z" fill="#07000C"/>
<path transform="translate(1129,541)" d="m0 0h1l1 9 3 3h9l2 1-1 4-5 1 2-3-10-2-2-1z" fill="#0D0225"/>
<path transform="translate(1010,545)" d="m0 0h9l7 3 5 3 5 2 2 3-4-2-7-2-6-4-3-1h-10z" fill="#0C021E"/>
<path transform="translate(580,503)" d="m0 0 4 1 2 7-1 2h-4l-1-2z" fill="#1A0742"/>
<path transform="translate(1261,471)" d="m0 0h13l2 1v7l-2-3v-2h-13l-4 1z" fill="#07000D"/>
<path transform="translate(754,399)" d="m0 0h9l-3 2-5 3-5 2-4 2 2-5z" fill="#07000E"/>
<path transform="translate(813,620)" d="m0 0 2 1-5 5-7 8-5 5-2 1 2-4 9-10 3-5z" fill="#090014"/>
<path transform="translate(875,562)" d="m0 0h8l3 1h6l-4 2-18 1 3-3z" fill="#0A0116"/>
<path transform="translate(1663,507)" d="m0 0h1v33l-3 1-5-1v-1l6-2z" fill="#07000C"/>
<path transform="translate(1328,391)" d="m0 0h1v7l-3 4-3-1 1-7 1-2z" fill="#0D0225"/>
<path transform="translate(1420,599)" d="m0 0 4 2-2 4-7 1 1-5z" fill="#020004"/>
<path transform="translate(1282,421)" d="m0 0 3 1-1 6-4 2-1 3h-1l1-7z" fill="#0A0116"/>
<path transform="translate(920,389)" d="m0 0 7 1 7 4v6l-5-5-6-3-5-1z" fill="#07000C"/>
<path transform="translate(968,347)" d="m0 0h1l1 7 2 2 4 1v2l-5 3h-2l-1-7-1-2v-5z" fill="#07000E"/>
<path transform="translate(1057,638)" d="m0 0h2l-1 7-2 4-5-1 1-4 4-2z" fill="#1A0742"/>
<path transform="translate(1535,543)" d="m0 0 2 1v8l-6-1v-5z" fill="#11032D"/>
<path transform="translate(844,532)" d="m0 0 6 2 1 6-4 4-3-1 4-1-2-7-5-1z" fill="#07000C"/>
<path transform="translate(1098,523)" d="m0 0h11l3 3v6l-2-1-1-4-2-1-12-1z" fill="#0B011D"/>
<path transform="translate(1086,469)" d="m0 0 4 1 7 9v8l-2-2-2-9h-2l-5-5z" fill="#080010"/>
<path transform="translate(916,441)" d="m0 0 4 1 1 4-4 3-4-1 2-6z" fill="#1A0742"/>
<path transform="translate(1172,363)" d="m0 0h4l2 5 3 2h-7l-6 1 3-1z" fill="#0A0116"/>
<path transform="translate(670,352)" d="m0 0 4 1v8h-4l-1-1v-6z" fill="#1A0742"/>
<path transform="translate(964,349)" d="m0 0h4l-1 9h-4l-1-6z" fill="#0E0327"/>
<path transform="translate(506,1372)" d="m0 0h3v16h-1l-1-8-3-3v-4z" fill="#0A0116"/>
<path transform="translate(555,555)" d="m0 0 3 2v7l-2 1v-7h-4v8l-2 2v-11z" fill="#080012"/>
<path transform="translate(1064,434)" d="m0 0 4 3 6 1 10-2-3 3-2 1h-13l-2-2z" fill="#0A0116"/>
<path transform="translate(890,704)" d="m0 0 3 1-1 5-3 2h-3v-5z" fill="#1A0742"/>
<path transform="translate(1315,638)" d="m0 0h3l3 6-2 2-4-1v-3l-3-1z" fill="#0A0118"/>
<path transform="translate(1023,628)" d="m0 0h2v4h-3v2l-7 3h-6l3-2 10-6z" fill="#0B011B"/>
<path transform="translate(672,429)" d="m0 0h5l2 5-1 1h-6l-1-5z" fill="#0E0327"/>
<path transform="translate(1140,346)" d="m0 0h2v2l10 1-1 3-5 1-7-1z" fill="#0A0119"/>
<path transform="translate(503,1116)" d="m0 0h6v6l-2 2-4-2-1-5z" fill="#919393"/>
<path transform="translate(1067,623)" d="m0 0 4 2v2h11l-2 2h-16l2-5z" fill="#080010"/>
<path transform="translate(1423,603)" d="m0 0v3l-10 3-2 4-1-2v-5l4-2 1 1 7-1z" fill="#0A0116"/>
<path transform="translate(637,599)" d="m0 0 21 1v1l-7 1-4 1-10-2z" fill="#0B011B"/>
<path transform="translate(925,553)" d="m0 0 7 2 4 2-3 5-2 4-1-7-5-4z" fill="#080011"/>
<path transform="translate(693,540)" d="m0 0h2v9l-2 6h-1l-2-10-1-2 1-2z" fill="#07000C"/>
<path transform="translate(595,510)" d="m0 0h5l4 5v4l-2-1-1-3-2-1-9-1-1-2z" fill="#080010"/>
<path transform="translate(1188,503)" d="m0 0h5l-1 4 2 8h-2l-1-4h-2v-2h-2z" fill="#080010"/>
<path transform="translate(1e3 478)" d="m0 0h6v1l-6 2 1 4 1 5-6-4-1-3 1-2h2v-2z" fill="#0A0116"/>
<path transform="translate(1120,441)" d="m0 0 5 1-1 5-6 2v-5z" fill="#1A0742"/>
<path transform="translate(1433,351)" d="m0 0h2l1 8h-4v-3h-5l5-4z" fill="#080012"/>
<path transform="translate(1094,703)" d="m0 0 5 2 2 3-1 2h-5l-2-2z" fill="#0A0116"/>
<path transform="translate(1378,648)" d="m0 0v3l-4 8-5 4 1-5 4-2 1-4-3-1 5-2z" fill="#0D0223"/>
<path transform="translate(923,638)" d="m0 0 4 1 1 4 4 2v2h-6l-3-2z" fill="#0A0116"/>
<path transform="translate(457,526)" d="m0 0 7 1 3 1 1 2v7l-2-4-2-3-4-1-1 3-2-1z" fill="#0D0224"/>
<path transform="translate(555,499)" d="m0 0h5l-1 5-1 1h-6l1-4z" fill="#07000C"/>
<path transform="translate(521,471)" d="m0 0 5 1 6 1-4 2-1 1h-9z" fill="#0D0226"/>
<path transform="translate(588,470)" d="m0 0h6l-1 4-4 4-3-4z" fill="#0E0327"/>
<path transform="translate(963,407)" d="m0 0 2 2v3l-5 3h-4l1-4z" fill="#0A0116"/>
<path transform="translate(754,349)" d="m0 0 3 4-1 4-5-1-9-2v-1h12z" fill="#0E0327"/>
<path transform="translate(999,347)" d="m0 0h14l-1 2h-8l2 8h-2l-2-5-3-3z" fill="#0B011D"/>
<path transform="translate(716,707)" d="m0 0h10l-3 2-6 3-1 1h-7l4-2z" fill="#090115"/>
<path transform="translate(974,702)" d="m0 0 3 3 3 1 4 5 6 1-4 2-5-2-6-5z" fill="#0D0223"/>
<path transform="translate(657,670)" d="m0 0h2l1 15h-2l-2-8z" fill="#150C26"/>
<path transform="translate(622,503)" d="m0 0 6 1v3l-4 2-4-1-1-3z" fill="#0E0327"/>
<path transform="translate(988,501)" d="m0 0h8l4 6-4-2v-2h-7l-4 1 2 6-3-1-1-5z" fill="#08000F"/>
<path transform="translate(1342,487)" d="m0 0h6l-2 4-1 8-4 3 2-4v-5l-2-4z" fill="#080012"/>
<path transform="translate(824,460)" d="m0 0h18l2 2h-12l-9 1-4 1 2-3z" fill="#0C0222"/>
<path transform="translate(897,454)" d="m0 0 5 2 7 1-4 5-5-2-3-4z" fill="#0A0116"/>
<path transform="translate(973,414)" d="m0 0h8l-2 3-8 2h-5l1-2h2v-2z" fill="#07000C"/>
<path transform="translate(1383,349)" d="m0 0 5 1 1 5h-7l-1-4z" fill="#020003"/>
<path transform="translate(1291,716)" d="m0 0h5v3l-4 2-2 3-4-3v-2z" fill="#0E0327"/>
<path transform="translate(544,524)" d="m0 0h6l2 3-1 4-5-2z" fill="#0D0226"/>
<path transform="translate(398,520)" d="m0 0 5 1-4 2-6 5-2-2 1-3z" fill="#1A0742"/>
<path transform="translate(910,436)" d="m0 0 5 1-4 2-2 6-7 1v-2l4-1 2-5z" fill="#07000C"/>
<path transform="translate(955,412)" d="m0 0 1 3 3 1-4 2-2 3-4-1 2-4z" fill="#0E0327"/>
<path transform="translate(1129,370)" d="m0 0 2 4v5l4-1 1 3-6 2-2-2z" fill="#0D0225"/>
<path transform="translate(974,359)" d="m0 0h2l2 3v5h-5l-1-4z" fill="#1A0742"/>
<path transform="translate(959,346)" d="m0 0h1v7l-3 3-10-1v-2l10-1z" fill="#0B011C"/>
<path transform="translate(1473,523)" d="m0 0 4 1 1 4-2 3-4-2z" fill="#0E0327"/>
<path transform="translate(399,522)" d="m0 0h4v3l-6 1v3l-6 1v-3l5-2z" fill="#383738"/>
<path transform="translate(1255,473)" d="m0 0m-2 1h2l-1 3-7 2h-4l-1 4-3-1 3-5 9-2z" fill="#0D0222"/>
<path transform="translate(812,423)" d="m0 0 4 1 3 5 1 7-2 1-1-5-3-4v-4z" fill="#090015"/>
<path transform="translate(938,366)" d="m0 0h2l2 4-1 4-5-1h-1v-5z" fill="#080011"/>
<path transform="translate(478,569)" d="m0 0h5l-2 4-5 3h-2l1-5z" fill="#353435"/>
<path transform="translate(1148,525)" d="m0 0 3 1-9 6-5 6-6 1 5-4 7-7z" fill="#0C0220"/>
<path transform="translate(1381,507)" d="m0 0 14 1v2l-8 1-9-2z" fill="#0C0221"/>
<path transform="translate(1228,487)" d="m0 0 4 1-6 5h-16v-1l9-1h6z" fill="#0A0116"/>
<path transform="translate(1091,486)" d="m0 0 5 1-1 5-5-1-2-1v-3z" fill="#1A0742"/>
<path transform="translate(692,455)" d="m0 0 8 2 4-1-5 5h-5l-2-2z" fill="#0A0116"/>
<path transform="translate(1456,389)" d="m0 0 5 5v7l-3 2h-5v-3l4 1 1-5z" fill="#090014"/>
<path transform="translate(738,365)" d="m0 0 3 2-2 5h-6l-2 2 1-4 5-3z" fill="#0A0116"/>
<path transform="translate(1204,688)" d="m0 0 9 1-3 5-1 3-2-1-1-4-3-3z" fill="#0D0224"/>
<path transform="translate(1202,677)" d="m0 0 13 1 2 2-1 4-1-3h-7l-6-3z" fill="#0C0220"/>
<path transform="translate(922,672)" d="m0 0 5 1 3 3-1 3-3-3-6-1h-10v-1z" fill="#07000F"/>
<path transform="translate(701,669)" d="m0 0 2 1-5 3-6 2-2 9-1-3 2-7 6-4z" fill="#0E0327"/>
<path transform="translate(1122,668)" d="m0 0 4 1-2 4-2 2h-3l-1-4h2v-2z" fill="#1A0742"/>
<path transform="translate(515,528)" d="m0 0 4 1 2 1-1 4h-2v2h-2l-1-2z" fill="#200F43"/>
<path transform="translate(1456,521)" d="m0 0h5l1 4-1 1h-6v-4z" fill="#0A0116"/>
<path transform="translate(1605,520)" d="m0 0h9l-4 5h-5z" fill="#767878"/>
<path transform="translate(1207,466)" d="m0 0 2 1-1 5-2 2-4-1 2-5z" fill="#0A0116"/>
<path transform="translate(1205,429)" d="m0 0 4 1 2 4-1 1h-5v-2h-2z" fill="#1A0742"/>
<path transform="translate(1523,398)" d="m0 0h4l-1 3-11 2v-3z" fill="#363536"/>
<path transform="translate(1203,346)" d="m0 0h9l2 2-6 4-2-3-3-1z" fill="#160E22"/>
<path transform="translate(915,668)" d="m0 0h6v4l-7 1z" fill="#190640"/>
<path transform="translate(960,659)" d="m0 0h1l1 9 5 4-4 1-4-2v-7z" fill="#07000C"/>
<path transform="translate(721,656)" d="m0 0h6l2 7-6-2z" fill="#1A0742"/>
<path transform="translate(464,540)" d="m0 0 1 2-3 3-10 2-5-1v-1l10-2h6z" fill="#0A0116"/>
<path transform="translate(681,474)" d="m0 0 3 1 3 9 1 4-5-2v-3l-2-1h2z" fill="#0D0223"/>
<path transform="translate(1234,460)" d="m0 0h7l-1 3-11 2 1-3z" fill="#0C0222"/>
<path transform="translate(1319,439)" d="m0 0 3 1-2 6h-9v-2l7-3z" fill="#080010"/>
<path transform="translate(1221,423)" d="m0 0 5 1 3 5v7l-2-3v-2h-2l-1-7z" fill="#0A0116"/>
<path transform="translate(1501,402)" d="m0 0h7v1l-8 2-8 4h-2v-2l8-4z" fill="#0B011B"/>
<path transform="translate(925,370)" d="m0 0 2 4 1 7 4 1 1-2-1 4h-6l-1-6z" fill="#0B011B"/>
<path transform="translate(768,360)" d="m0 0h3l1 2v6l-4-1-1-5z" fill="#1A0742"/>
<path transform="translate(686,671)" d="m0 0 1 4-2 4-4 1-1-2 3-5z" fill="#353435"/>
<path transform="translate(1168,660)" d="m0 0 5 5 4-1-2 4-4 1-3-6z" fill="#090015"/>
<path transform="translate(1016,423)" d="m0 0 5 1 3 5v7l-2-4v-2h-2l-1-6z" fill="#0A0116"/>
<path transform="translate(1177,359)" d="m0 0 4 1 1 6-1 2-3-1z" fill="#1A0742"/>
<path transform="translate(1370,346)" d="m0 0h7v3h-14v-2z" fill="#0A0117"/>
<path transform="translate(951,693)" d="m0 0h6l-1 5-3 1-3-3z" fill="#1A0742"/>
<path transform="translate(1340,657)" d="m0 0 3 1v2l-7 3h-3l1-4z" fill="#1A0742"/>
<path transform="translate(1299,653)" d="m0 0 4 1 1 4-1 3h-3l-1-2z" fill="#1A0742"/>
<path transform="translate(1058,610)" d="m0 0 7 4-4 1h-9l5-4z" fill="#080010"/>
<path transform="translate(781,572)" d="m0 0h1l2 10h6l-3 3-5-1-1-1z" fill="#0D0224"/>
<path transform="translate(642,531)" d="m0 0h3l-1 10-3-6h-6v-2z" fill="#07000F"/>
<path transform="translate(1115,438)" d="m0 0 11 1v1h-9l-1 4-2 2-3-1 3-1z" fill="#0A0116"/>
<path transform="translate(548,402)" d="m0 0h5l-4 4-7 4 1-4z" fill="#1A0742"/>
<path transform="translate(976,360)" d="m0 0 3 1v8l-9 2 2-5 6 1z" fill="#0B011C"/>
<path transform="translate(620,554)" d="m0 0 5 1-1 6h-3z" fill="#190640"/>
<path transform="translate(1482,508)" d="m0 0 1 3 10 1v1l-9 1-5 1 1-5z" fill="#0A0116"/>
<path transform="translate(798,509)" d="m0 0 5 4 5 2-1 5-2-4-6-1z" fill="#0D0226"/>
<path transform="translate(1536,478)" d="m0 0 4 1v5h-5l-1-3z" fill="#020003"/>
<path transform="translate(1027,461)" d="m0 0m-1 1v3l-10 10h-2l2-4z" fill="#0D0223"/>
<path transform="translate(1124,449)" d="m0 0 2 1-6 7-5 1 5-7z" fill="#090013"/>
<path transform="translate(1216,353)" d="m0 0v3l-3 6h-2v-2h-2l1-4 5-2z" fill="#0B011D"/>
<path transform="translate(1346,351)" d="m0 0h5l1 4-9 1 2-4z" fill="#353435"/>
<path transform="translate(899,678)" d="m0 0 5 1-1 2-8 1-1 5-2 2 1-7z" fill="#0D0222"/>
<path transform="translate(661,608)" d="m0 0v3l-1 1h-13v-2l12-1z" fill="#0D0226"/>
<path transform="translate(1268,562)" d="m0 0 2 2h7l7-1v2l-3 1h-13z" fill="#090015"/>
<path transform="translate(617,550)" d="m0 0 2 1v2l4 1h-3l-1 4v-2l-9 1 1-2 6-2z" fill="#0D0226"/>
<path transform="translate(425,530)" d="m0 0 5 2-1 4-3 1-3-3z" fill="#07000C"/>
<path transform="translate(1101,423)" d="m0 0v3l-5 5-5 4-3-1 8-6h2l1-4z" fill="#07000C"/>
<path transform="translate(885,701)" d="m0 0 4 1-2 5h-4l1-5z" fill="#07000E"/>
<path transform="translate(924,665)" d="m0 0 9 4 1 3h-2v-2l-8-2h-7l2-2z" fill="#07000D"/>
<path transform="translate(982,655)" d="m0 0 2 1-6 2-2 4-6 5 2-4 5-6z" fill="#080011"/>
<path transform="translate(497,565)" d="m0 0 7 1-1 4-3 1-4-4z" fill="#221441"/>
<path transform="translate(593,513)" d="m0 0h6l4 3-1 5-3-1h2v-4l-8-1z" fill="#0D0224"/>
<path transform="translate(1459,479)" d="m0 0v3l-3 4-4 10h-1v-6l6-9z" fill="#0C021F"/>
<path transform="translate(1115,436)" d="m0 0 4 1-4 1-1 6-6 1 4-4z" fill="#07000C"/>
<path transform="translate(931,671)" d="m0 0 7 3-2 1-4-1-1 5-2-3 1-4z" fill="#0E0327"/>
<path transform="translate(1232,632)" d="m0 0 2 3 1 3h2l2-2v4h-7l-1-6z" fill="#090014"/>
<path transform="translate(553,559)" d="m0 0h3v7l-3 4z" fill="#1A0742"/>
<path transform="translate(798,466)" d="m0 0 1 4-4 4-3-2 5-5z" fill="#0A0116"/>
<path transform="translate(1421,426)" d="m0 0 3 2-1 5-6-2z" fill="#1A0742"/>
<path transform="translate(999,420)" d="m0 0 8 1-4 1-2 4-2 1z" fill="#090012"/>
<path transform="translate(878,346)" d="m0 0h6l-2 2-1 4-6-2 1-2h2z" fill="#090013"/>
<path transform="translate(1161,679)" d="m0 0h1v7l-3 3-1 4-2-3 1-4h3z" fill="#0A0117"/>
<path transform="translate(974,642)" d="m0 0h5l-4 2-2 5-7 2v-2l5-2z" fill="#07000C"/>
<path transform="translate(505,563)" d="m0 0h4v2h-2l-1 3h-2v-2h-6l3-2z" fill="#0B011B"/>
<path transform="translate(1525,559)" d="m0 0 3 1v5l-3 2-2-3z" fill="#0A0116"/>
<path transform="translate(1087,529)" d="m0 0h1v5l-9 7v-3l7-6z" fill="#0C0221"/>
</svg>
